<svg xmlns="http://www.w3.org/2000/svg" xmlns:xlink="http://www.w3.org/1999/xlink" contentStyleType="text/css" data-diagram-type="CLASS" height="637px" preserveAspectRatio="none" style="width:1063px;height:637px;background:#FFFFFF;" version="1.1" viewBox="0 0 1063 637" width="1063px" zoomAndPan="magnify"><defs/><g><!--class User--><g class="entity" data-entity="User" data-source-line="4" data-uid="ent0002" id="entity_User"><rect fill="#F1F1F1" height="123.7813" rx="2.5" ry="2.5" style="stroke:#181818;stroke-width:0.5;" width="173.1367" x="464.16" y="7"/><text fill="#000000" font-family="sans-serif" font-size="14" lengthAdjust="spacing" textLength="31.9102" x="534.7733" y="24.9951">User</text><line style="stroke:#181818;stroke-width:0.5;" x1="465.16" x2="636.2967" y1="33.2969" y2="33.2969"/><ellipse cx="475.16" cy="46.9453" fill="#000000" rx="3" ry="3" style="stroke:#000000;stroke-width:1;"/><text fill="#000000" font-family="sans-serif" font-size="14" lengthAdjust="spacing" textLength="138.5371" x="484.16" y="50.292">user_id : UUID &#171;PK&#187;</text><line style="stroke:#181818;stroke-width:1;" x1="465.16" x2="636.2967" y1="57.5938" y2="57.5938"/><text fill="#000000" font-family="sans-serif" font-size="14" lengthAdjust="spacing" textLength="92.415" x="470.16" y="74.5889">email : string</text><text fill="#000000" font-family="sans-serif" font-size="14" lengthAdjust="spacing" textLength="161.1367" x="470.16" y="90.8857">password_hash : string</text><text fill="#000000" font-family="sans-serif" font-size="14" lengthAdjust="spacing" textLength="143.2539" x="470.16" y="107.1826">is_anonymous : bool</text><text fill="#000000" font-family="sans-serif" font-size="14" lengthAdjust="spacing" textLength="151.5186" x="470.16" y="123.4795">created_at : datetime</text></g><!--class Folder--><g class="entity" data-entity="Folder" data-source-line="13" data-uid="ent0003" id="entity_Folder"><rect fill="#F1F1F1" height="107.4844" rx="2.5" ry="2.5" style="stroke:#181818;stroke-width:0.5;" width="213.4482" x="7" y="224.07"/><text fill="#000000" font-family="sans-serif" font-size="14" lengthAdjust="spacing" textLength="43.7637" x="91.8423" y="242.0651">Folder</text><line style="stroke:#181818;stroke-width:0.5;" x1="8" x2="219.4482" y1="250.3669" y2="250.3669"/><ellipse cx="18" cy="264.0153" fill="#000000" rx="3" ry="3" style="stroke:#000000;stroke-width:1;"/><text fill="#000000" font-family="sans-serif" font-size="14" lengthAdjust="spacing" textLength="148.6406" x="27" y="267.362">folder_id : UUID &#171;PK&#187;</text><line style="stroke:#181818;stroke-width:1;" x1="8" x2="219.4482" y1="274.6638" y2="274.6638"/><text fill="#000000" font-family="sans-serif" font-size="14" lengthAdjust="spacing" textLength="93.5088" x="13" y="291.6589">name : string</text><text fill="#000000" font-family="sans-serif" font-size="14" lengthAdjust="spacing" textLength="201.4482" x="13" y="307.9557">parent_folder_id : UUID &#171;FK&#187;</text><text fill="#000000" font-family="sans-serif" font-size="14" lengthAdjust="spacing" textLength="138.1475" x="13" y="324.2526">user_id : UUID &#171;FK&#187;</text></g><!--class Bookmark--><g class="entity" data-entity="Bookmark" data-source-line="21" data-uid="ent0004" id="entity_Bookmark"><rect fill="#F1F1F1" height="205.2656" rx="2.5" ry="2.5" style="stroke:#181818;stroke-width:0.5;" width="214.1455" x="192.65" y="424.85"/><text fill="#000000" font-family="sans-serif" font-size="14" lengthAdjust="spacing" textLength="70.9229" x="264.2613" y="442.8451">Bookmark</text><line style="stroke:#181818;stroke-width:0.5;" x1="193.65" x2="405.7955" y1="451.1469" y2="451.1469"/><ellipse cx="203.65" cy="464.7953" fill="#000000" rx="3" ry="3" style="stroke:#000000;stroke-width:1;"/><text fill="#000000" font-family="sans-serif" font-size="14" lengthAdjust="spacing" textLength="178.2061" x="212.65" y="468.142">bookmark_id : UUID &#171;PK&#187;</text><line style="stroke:#181818;stroke-width:1;" x1="193.65" x2="405.7955" y1="475.4438" y2="475.4438"/><text fill="#000000" font-family="sans-serif" font-size="14" lengthAdjust="spacing" textLength="81.1768" x="198.65" y="492.4389">title : string</text><text fill="#000000" font-family="sans-serif" font-size="14" lengthAdjust="spacing" textLength="72.3242" x="198.65" y="508.7357">url : string</text><text fill="#000000" font-family="sans-serif" font-size="14" lengthAdjust="spacing" textLength="202.1455" x="198.65" y="525.0326">encrypted_username : string</text><text fill="#000000" font-family="sans-serif" font-size="14" lengthAdjust="spacing" textLength="198.6182" x="198.65" y="541.3295">encrypted_password : string</text><text fill="#000000" font-family="sans-serif" font-size="14" lengthAdjust="spacing" textLength="170.7412" x="198.65" y="557.6264">encrypted_notes : string</text><text fill="#000000" font-family="sans-serif" font-size="14" lengthAdjust="spacing" textLength="4.4502" x="198.65" y="573.9232">&#160;</text><text fill="#000000" font-family="sans-serif" font-size="14" lengthAdjust="spacing" textLength="148.251" x="198.65" y="590.2201">folder_id : UUID &#171;FK&#187;</text><text fill="#000000" font-family="sans-serif" font-size="14" lengthAdjust="spacing" textLength="138.1475" x="198.65" y="606.517">user_id : UUID &#171;FK&#187;</text><text fill="#000000" font-family="sans-serif" font-size="14" lengthAdjust="spacing" textLength="151.5186" x="198.65" y="622.8139">created_at : datetime</text></g><!--class Article--><g class="entity" data-entity="Article" data-source-line="35" data-uid="ent0005" id="entity_Article"><rect fill="#F1F1F1" height="140.0781" rx="2.5" ry="2.5" style="stroke:#181818;stroke-width:0.5;" width="177.915" x="461.77" y="207.78"/><text fill="#000000" font-family="sans-serif" font-size="14" lengthAdjust="spacing" textLength="44.9121" x="528.2715" y="225.7751">Article</text><line style="stroke:#181818;stroke-width:0.5;" x1="462.77" x2="638.685" y1="234.0769" y2="234.0769"/><ellipse cx="472.77" cy="247.7253" fill="#000000" rx="3" ry="3" style="stroke:#000000;stroke-width:1;"/><text fill="#000000" font-family="sans-serif" font-size="14" lengthAdjust="spacing" textLength="151.915" x="481.77" y="251.072">article_id : UUID &#171;PK&#187;</text><line style="stroke:#181818;stroke-width:1;" x1="462.77" x2="638.685" y1="258.3738" y2="258.3738"/><text fill="#000000" font-family="sans-serif" font-size="14" lengthAdjust="spacing" textLength="81.1768" x="467.77" y="275.3689">title : string</text><text fill="#000000" font-family="sans-serif" font-size="14" lengthAdjust="spacing" textLength="95.0947" x="467.77" y="291.6657">content : text</text><text fill="#000000" font-family="sans-serif" font-size="14" lengthAdjust="spacing" textLength="72.3242" x="467.77" y="307.9626">url : string</text><text fill="#000000" font-family="sans-serif" font-size="14" lengthAdjust="spacing" textLength="138.1475" x="467.77" y="324.2595">user_id : UUID &#171;FK&#187;</text><text fill="#000000" font-family="sans-serif" font-size="14" lengthAdjust="spacing" textLength="139.542" x="467.77" y="340.5564">saved_at : datetime</text></g><!--class RSSFeed--><g class="entity" data-entity="RSSFeed" data-source-line="45" data-uid="ent0006" id="entity_RSSFeed"><rect fill="#F1F1F1" height="107.4844" rx="2.5" ry="2.5" style="stroke:#181818;stroke-width:0.5;" width="165.043" x="674.2" y="224.07"/><text fill="#000000" font-family="sans-serif" font-size="14" lengthAdjust="spacing" textLength="61.667" x="725.888" y="242.0651">RSSFeed</text><line style="stroke:#181818;stroke-width:0.5;" x1="675.2" x2="838.243" y1="250.3669" y2="250.3669"/><ellipse cx="685.2" cy="264.0153" fill="#000000" rx="3" ry="3" style="stroke:#000000;stroke-width:1;"/><text fill="#000000" font-family="sans-serif" font-size="14" lengthAdjust="spacing" textLength="139.043" x="694.2" y="267.362">feed_id : UUID &#171;PK&#187;</text><line style="stroke:#181818;stroke-width:1;" x1="675.2" x2="838.243" y1="274.6638" y2="274.6638"/><text fill="#000000" font-family="sans-serif" font-size="14" lengthAdjust="spacing" textLength="81.1768" x="680.2" y="291.6589">title : string</text><text fill="#000000" font-family="sans-serif" font-size="14" lengthAdjust="spacing" textLength="72.3242" x="680.2" y="307.9557">url : string</text><text fill="#000000" font-family="sans-serif" font-size="14" lengthAdjust="spacing" textLength="138.1475" x="680.2" y="324.2526">user_id : UUID &#171;FK&#187;</text></g><!--class RSSItem--><g class="entity" data-entity="RSSItem" data-source-line="53" data-uid="ent0007" id="entity_RSSItem"><rect fill="#F1F1F1" height="123.7813" rx="2.5" ry="2.5" style="stroke:#181818;stroke-width:0.5;" width="195.4766" x="658.99" y="465.6"/><text fill="#000000" font-family="sans-serif" font-size="14" lengthAdjust="spacing" textLength="59.3701" x="727.0432" y="483.5951">RSSItem</text><line style="stroke:#181818;stroke-width:0.5;" x1="659.99" x2="853.4666" y1="491.8969" y2="491.8969"/><ellipse cx="669.99" cy="505.5453" fill="#000000" rx="3" ry="3" style="stroke:#000000;stroke-width:1;"/><text fill="#000000" font-family="sans-serif" font-size="14" lengthAdjust="spacing" textLength="139.6309" x="678.99" y="508.892">item_id : UUID &#171;PK&#187;</text><line style="stroke:#181818;stroke-width:1;" x1="659.99" x2="853.4666" y1="516.1938" y2="516.1938"/><text fill="#000000" font-family="sans-serif" font-size="14" lengthAdjust="spacing" textLength="138.6533" x="664.99" y="533.1889">feed_id : UUID &#171;FK&#187;</text><text fill="#000000" font-family="sans-serif" font-size="14" lengthAdjust="spacing" textLength="81.1768" x="664.99" y="549.4857">title : string</text><text fill="#000000" font-family="sans-serif" font-size="14" lengthAdjust="spacing" textLength="72.3242" x="664.99" y="565.7826">url : string</text><text fill="#000000" font-family="sans-serif" font-size="14" lengthAdjust="spacing" textLength="183.4766" x="664.99" y="582.0795">published_date : datetime</text></g><!--class History--><g class="entity" data-entity="History" data-source-line="62" data-uid="ent0008" id="entity_History"><rect fill="#F1F1F1" height="123.7813" rx="2.5" ry="2.5" style="stroke:#181818;stroke-width:0.5;" width="182.1533" x="874.65" y="215.92"/><text fill="#000000" font-family="sans-serif" font-size="14" lengthAdjust="spacing" textLength="49.8066" x="940.8233" y="233.9151">History</text><line style="stroke:#181818;stroke-width:0.5;" x1="875.65" x2="1055.8033" y1="242.2169" y2="242.2169"/><ellipse cx="885.65" cy="255.8653" fill="#000000" rx="3" ry="3" style="stroke:#000000;stroke-width:1;"/><text fill="#000000" font-family="sans-serif" font-size="14" lengthAdjust="spacing" textLength="156.1533" x="894.65" y="259.212">history_id : UUID &#171;PK&#187;</text><line style="stroke:#181818;stroke-width:1;" x1="875.65" x2="1055.8033" y1="266.5138" y2="266.5138"/><text fill="#000000" font-family="sans-serif" font-size="14" lengthAdjust="spacing" textLength="138.1475" x="880.65" y="283.5089">user_id : UUID &#171;FK&#187;</text><text fill="#000000" font-family="sans-serif" font-size="14" lengthAdjust="spacing" textLength="123.71" x="880.65" y="299.8057">item_type : string</text><text fill="#000000" font-family="sans-serif" font-size="14" lengthAdjust="spacing" textLength="100.4268" x="880.65" y="316.1026">item_id : UUID</text><text fill="#000000" font-family="sans-serif" font-size="14" lengthAdjust="spacing" textLength="162.5586" x="880.65" y="332.3995">accessed_at : datetime</text></g><!--link User to Folder--><g class="link" data-entity-1="User" data-entity-2="Folder" data-source-line="72" data-uid="lnk9" id="link_User_Folder"><path codeLine="72" d="M456.3898,105.4047 C414.4698,121.8047 371.2,139.72 326.72,160.78 C286.38,179.88 258.662,194.3034 221.592,214.9134" fill="none" id="User-Folder" style="stroke:#181818;stroke-width:1;"/><line style="stroke:#181818;stroke-width:1;" x1="458.6576" x2="461.5723" y1="100.2223" y2="107.6724"/><line style="stroke:#181818;stroke-width:1;" x1="455.8638" x2="458.7784" y1="101.3153" y2="108.7654"/><line style="stroke:#181818;stroke-width:1;" x1="456.3898" x2="463.84" y1="105.4047" y2="102.49"/><line style="stroke:#181818;stroke-width:1;" x1="212.852" x2="208.7755" y1="219.7726" y2="228.904"/><line style="stroke:#181818;stroke-width:1;" x1="212.852" x2="202.9445" y1="219.7726" y2="218.416"/><line style="stroke:#181818;stroke-width:1;" x1="212.852" x2="205.86" y1="219.7726" y2="223.66"/><ellipse cx="218.096" cy="216.8571" fill="none" rx="4" ry="4" style="stroke:#181818;stroke-width:1;"/><text fill="#000000" font-family="sans-serif" font-size="13" lengthAdjust="spacing" textLength="33.5981" x="327.72" y="173.8469">owns</text></g><!--link User to Bookmark--><g class="link" data-entity-1="User" data-entity-2="Bookmark" data-source-line="73" data-uid="lnk10" id="link_User_Bookmark"><path codeLine="73" d="M466.6476,136.5601 C442.5576,158.6001 423.6,179.62 405.72,207.78 C363.6,274.11 340.7899,341.441 324.5299,406.891" fill="none" id="User-Bookmark" style="stroke:#181818;stroke-width:1;"/><line style="stroke:#181818;stroke-width:1;" x1="466.8987" x2="472.2989" y1="130.9089" y2="136.8113"/><line style="stroke:#181818;stroke-width:1;" x1="464.6853" x2="470.0855" y1="132.9339" y2="138.8363"/><line style="stroke:#181818;stroke-width:1;" x1="466.6476" x2="472.55" y1="136.5601" y2="131.16"/><line style="stroke:#181818;stroke-width:1;" x1="322.1188" x2="326.013" y1="416.596" y2="425.8066"/><line style="stroke:#181818;stroke-width:1;" x1="322.1188" x2="314.367" y1="416.596" y2="422.9134"/><line style="stroke:#181818;stroke-width:1;" x1="322.1188" x2="320.19" y1="416.596" y2="424.36"/><ellipse cx="323.5655" cy="410.773" fill="none" rx="4" ry="4" style="stroke:#181818;stroke-width:1;"/><text fill="#000000" font-family="sans-serif" font-size="13" lengthAdjust="spacing" textLength="37.2036" x="406.72" y="282.3869">saves</text></g><!--link User to Article--><g class="link" data-entity-1="User" data-entity-2="Article" data-source-line="74" data-uid="lnk11" id="link_User_Article"><path codeLine="74" d="M550.72,139.13 C550.72,163.09 550.72,164.68 550.72,189.38" fill="none" id="User-Article" style="stroke:#181818;stroke-width:1;"/><line style="stroke:#181818;stroke-width:1;" x1="546.72" x2="554.72" y1="135.13" y2="135.13"/><line style="stroke:#181818;stroke-width:1;" x1="546.72" x2="554.72" y1="138.13" y2="138.13"/><line style="stroke:#181818;stroke-width:1;" x1="550.72" x2="550.72" y1="139.13" y2="131.13"/><line style="stroke:#181818;stroke-width:1;" x1="550.72" x2="556.72" y1="199.38" y2="207.38"/><line style="stroke:#181818;stroke-width:1;" x1="550.72" x2="544.72" y1="199.38" y2="207.38"/><line style="stroke:#181818;stroke-width:1;" x1="550.72" x2="550.72" y1="199.38" y2="207.38"/><ellipse cx="550.72" cy="193.38" fill="none" rx="4" ry="4" style="stroke:#181818;stroke-width:1;"/><text fill="#000000" font-family="sans-serif" font-size="13" lengthAdjust="spacing" textLength="37.2036" x="551.72" y="173.8469">saves</text></g><!--link User to RSSFeed--><g class="link" data-entity-1="User" data-entity-2="RSSFeed" data-source-line="75" data-uid="lnk12" id="link_User_RSSFeed"><path codeLine="75" d="M617.3343,136.7994 C646.6443,166.2394 663.0792,182.755 691.2392,211.035" fill="none" id="User-RSSFeed" style="stroke:#181818;stroke-width:1;"/><line style="stroke:#181818;stroke-width:1;" x1="611.6775" x2="617.3468" y1="136.7868" y2="131.1425"/><line style="stroke:#181818;stroke-width:1;" x1="613.7941" x2="619.4635" y1="138.9128" y2="133.2685"/><line style="stroke:#181818;stroke-width:1;" x1="617.3343" x2="611.69" y1="136.7994" y2="131.13"/><line style="stroke:#181818;stroke-width:1;" x1="698.2952" x2="708.1917" y1="218.1211" y2="219.5564"/><line style="stroke:#181818;stroke-width:1;" x1="698.2952" x2="699.6883" y1="218.1211" y2="228.0236"/><line style="stroke:#181818;stroke-width:1;" x1="698.2952" x2="703.94" y1="218.1211" y2="223.79"/><ellipse cx="694.0616" cy="213.8695" fill="none" rx="4" ry="4" style="stroke:#181818;stroke-width:1;"/><text fill="#000000" font-family="sans-serif" font-size="13" lengthAdjust="spacing" textLength="69.1641" x="654.72" y="173.8469">subscribes</text></g><!--link User to History--><g class="link" data-entity-1="User" data-entity-2="History" data-source-line="76" data-uid="lnk13" id="link_User_History"><path codeLine="76" d="M645.0732,108.3043 C707.1832,134.4543 784.77,169.03 856.72,207.78 C862.54,210.91 852.8887,205.2276 858.8187,208.6576" fill="none" id="User-History" style="stroke:#181818;stroke-width:1;"/><line style="stroke:#181818;stroke-width:1;" x1="639.8344" x2="642.9387" y1="110.4387" y2="103.0656"/><line style="stroke:#181818;stroke-width:1;" x1="642.5994" x2="645.7037" y1="111.6028" y2="104.2297"/><line style="stroke:#181818;stroke-width:1;" x1="645.0732" x2="637.7" y1="108.3043" y2="105.2"/><line style="stroke:#181818;stroke-width:1;" x1="867.475" x2="877.4041" y1="213.6645" y2="212.4762"/><line style="stroke:#181818;stroke-width:1;" x1="867.475" x2="871.3959" y1="213.6645" y2="222.8638"/><line style="stroke:#181818;stroke-width:1;" x1="867.475" x2="874.4" y1="213.6645" y2="217.67"/><ellipse cx="862.2812" cy="210.6603" fill="none" rx="4" ry="4" style="stroke:#181818;stroke-width:1;"/><text fill="#000000" font-family="sans-serif" font-size="13" lengthAdjust="spacing" textLength="26.5903" x="792.72" y="173.8469">logs</text></g><!--link Folder to Bookmark--><g class="link" data-entity-1="Folder" data-entity-2="Bookmark" data-source-line="78" data-uid="lnk14" id="link_Folder_Bookmark"><path codeLine="78" d="M158.4345,338.3466 C178.7145,365.3466 188.4506,378.3171 212.3106,410.0871" fill="none" id="Folder-Bookmark" style="stroke:#181818;stroke-width:1;"/><line style="stroke:#181818;stroke-width:1;" x1="152.834" x2="159.2306" y1="337.5506" y2="332.746"/><line style="stroke:#181818;stroke-width:1;" x1="154.6357" x2="161.0323" y1="339.9493" y2="335.1447"/><line style="stroke:#181818;stroke-width:1;" x1="158.4345" x2="153.63" y1="338.3466" y2="331.95"/><line style="stroke:#181818;stroke-width:1;" x1="218.3158" x2="227.9176" y1="418.0831" y2="420.8769"/><line style="stroke:#181818;stroke-width:1;" x1="218.3158" x2="218.3224" y1="418.0831" y2="428.0831"/><line style="stroke:#181818;stroke-width:1;" x1="218.3158" x2="223.12" y1="418.0831" y2="424.48"/><ellipse cx="214.7127" cy="413.2855" fill="none" rx="4" ry="4" style="stroke:#181818;stroke-width:1;"/><text fill="#000000" font-family="sans-serif" font-size="13" lengthAdjust="spacing" textLength="55.0278" x="196.72" y="390.9169">contains</text></g><!--link Folder to Folder--><g class="link" data-entity-1="Folder" data-entity-2="Folder" data-source-line="79" data-uid="lnk15" id="link_Folder_Folder"><path codeLine="79" d="M228.5887,259.3444 C248.9787,261.6644 255.45,267.22 255.45,277.82 C255.45,288.41 258.9146,292.8351 238.5246,295.1551" fill="none" id="Folder-Folder" style="stroke:#181818;stroke-width:1;"/><line style="stroke:#181818;stroke-width:1;" x1="224.1621" x2="225.0666" y1="262.8666" y2="254.9179"/><line style="stroke:#181818;stroke-width:1;" x1="227.1429" x2="228.0473" y1="263.2057" y2="255.257"/><line style="stroke:#181818;stroke-width:1;" x1="228.5887" x2="220.64" y1="259.3444" y2="258.44"/><line style="stroke:#181818;stroke-width:1;" x1="228.5887" x2="221.3183" y1="296.2856" y2="303.1515"/><line style="stroke:#181818;stroke-width:1;" x1="228.5887" x2="219.9617" y1="296.2856" y2="291.2285"/><line style="stroke:#181818;stroke-width:1;" x1="228.5887" x2="220.64" y1="296.2856" y2="297.19"/><ellipse cx="234.5502" cy="295.6073" fill="none" rx="4" ry="4" style="stroke:#181818;stroke-width:1;"/><text fill="#000000" font-family="sans-serif" font-size="13" lengthAdjust="spacing" textLength="67.7739" x="261.45" y="282.3869">subfolders</text></g><!--link RSSFeed to RSSItem--><g class="link" data-entity-1="RSSFeed" data-entity-2="RSSItem" data-source-line="81" data-uid="lnk16" id="link_RSSFeed_RSSItem"><path codeLine="81" d="M756.72,339.95 C756.72,379.03 756.72,406.26 756.72,447.15" fill="none" id="RSSFeed-RSSItem" style="stroke:#181818;stroke-width:1;"/><line style="stroke:#181818;stroke-width:1;" x1="752.72" x2="760.72" y1="335.95" y2="335.95"/><line style="stroke:#181818;stroke-width:1;" x1="752.72" x2="760.72" y1="338.95" y2="338.95"/><line style="stroke:#181818;stroke-width:1;" x1="756.72" x2="756.72" y1="339.95" y2="331.95"/><line style="stroke:#181818;stroke-width:1;" x1="756.72" x2="762.72" y1="457.15" y2="465.15"/><line style="stroke:#181818;stroke-width:1;" x1="756.72" x2="750.72" y1="457.15" y2="465.15"/><line style="stroke:#181818;stroke-width:1;" x1="756.72" x2="756.72" y1="457.15" y2="465.15"/><ellipse cx="756.72" cy="451.15" fill="none" rx="4" ry="4" style="stroke:#181818;stroke-width:1;"/><text fill="#000000" font-family="sans-serif" font-size="13" lengthAdjust="spacing" textLength="22.9785" x="757.72" y="390.9169">has</text></g><!--SRC=[dPJDJiCm3CVlVOfebqb8Um649e7GDCG5CUrSfQrP8zAuYbr61RmxpfgnTLlPu58b_iVnpn_fMCrD0OfBK5GZgnVqAWDcyChg5XjEog3dnkSMaWGS6sxLQ4dWH-eZKUggaMLg2dMjbik7UtLpy_GudOemcSW7AcsiICJUk9KOQasqHb-afQPoNp2KQeUkhR0XiMU8Lgov1yrGf9h5LiYIJGN9rmvaXhRuGNdPR0PXdAwWp-BbclI4rwppEafjOz-BVeVuMcd_6kDdSJj885wsXz3uNdN0vRwjGy8Xz27lJjrMyRJga85sacX_JV62mjzwDZ8ICNFTxIvFF4V7SfMO6Dxvk193NAJVVgDwNYnc0CLs7cJvxrwSRRx4Uc2eOYmZoy5OHo0nctCCTPDPGwKuXsG7SfuROlHjv2YxtI3AK64t_DpMFPn-KcBGUGv4fpemLizWDHjqL9gQal27K9-Vamb-gEwHYWEkNL_PFg0GL3hR5-E8dTHYeuFMP9HxanqSY5MH0nPNb2IHuJXkc4HjXAj_ueTPxk-UZrooZRg321CWX-HlzWq0]--></g></svg>
