<?xml version="1.0" encoding="UTF-8" standalone="no"?>
<!-- Created with Inkscape (http://www.inkscape.org/) -->

<svg
   width="1440"
   height="3200"
   viewBox="0 0 1440 3200"
   version="1.1"
   id="svg1"
   xml:space="preserve"
   inkscape:version="1.4.4 (dcaf3e7d9e, 2026-05-05)"
   sodipodi:docname="drawing.svg"
   xmlns:inkscape="http://www.inkscape.org/namespaces/inkscape"
   xmlns:sodipodi="http://sodipodi.sourceforge.net/DTD/sodipodi-0.dtd"
   xmlns:xlink="http://www.w3.org/1999/xlink"
   xmlns="http://www.w3.org/2000/svg"
   xmlns:svg="http://www.w3.org/2000/svg"><sodipodi:namedview
     id="namedview1"
     pagecolor="#ffffff"
     bordercolor="#000000"
     borderopacity="0.25"
     inkscape:showpageshadow="2"
     inkscape:pageopacity="0.0"
     inkscape:pagecheckerboard="0"
     inkscape:deskcolor="#d1d1d1"
     inkscape:document-units="px"
     showguides="true"
     inkscape:zoom="0.24324938"
     inkscape:cx="193.21735"
     inkscape:cy="1479.9627"
     inkscape:window-width="1920"
     inkscape:window-height="1044"
     inkscape:window-x="0"
     inkscape:window-y="0"
     inkscape:window-maximized="1"
     inkscape:current-layer="layer1" /><defs
     id="defs1"><inkscape:path-effect
       effect="spiro"
       id="path-effect14"
       is_visible="true"
       lpeversion="1" /><inkscape:path-effect
       effect="spiro"
       id="path-effect13"
       is_visible="true"
       lpeversion="1" /><radialGradient
       inkscape:collect="always"
       xlink:href="#qleorMOLqjiXYpxSjD5yKc_119008_gr3"
       id="radialGradient15"
       gradientUnits="userSpaceOnUse"
       gradientTransform="matrix(8.7342034,0,0,8.7342034,331.62778,313.66921)"
       cx="12.25"
       cy="31.125"
       fx="35.876"
       fy="31.032"
       r="23.626"
       spreadMethod="reflect" /><radialGradient
       inkscape:collect="always"
       xlink:href="#qleorMOLqjiXYpxSjD5yKc_119008_gr3"
       id="radialGradient16"
       gradientUnits="userSpaceOnUse"
       gradientTransform="matrix(6.6218684,0,0,6.6218684,299.73979,83.160272)"
       cx="12.25"
       cy="31.125"
       fx="35.876"
       fy="31.032"
       r="23.626"
       spreadMethod="reflect" /><radialGradient
       inkscape:collect="always"
       xlink:href="#qleorMOLqjiXYpxSjD5yKc_119008_gr3"
       id="radialGradient6"
       gradientUnits="userSpaceOnUse"
       gradientTransform="matrix(6.6218684,0,0,6.6218684,360.95464,237.43669)"
       cx="12.25"
       cy="31.125"
       fx="35.875999"
       fy="31.032"
       r="23.625999"
       spreadMethod="reflect" /><filter
       inkscape:collect="always"
       style="color-interpolation-filters:sRGB"
       id="filter9"
       x="-0.016571059"
       y="-0.13130382"
       width="1.0331421"
       height="1.2626076"><feGaussianBlur
         inkscape:collect="always"
         stdDeviation="5.5256126"
         id="feGaussianBlur9" /></filter></defs><g
     inkscape:label="Layer 1"
     inkscape:groupmode="layer"
     id="layer1"
     transform="translate(2072.3145,736.44312)"><rect
       style="fill:#f9f9f9;fill-opacity:1;stroke:none;stroke-width:9.58414"
       id="rect17"
       width="1440"
       height="673.93079"
       x="-2072.3145"
       y="-241.79156"
       ry="0" /><rect
       style="fill:#f2f2f2;fill-opacity:1;stroke-width:8.37208"
       id="rect7"
       width="1440"
       height="494.65155"
       x="-2072.3145"
       y="-736.44312"
       ry="0" /><g
       id="g1"
       transform="matrix(8.9650774,0,0,8.9650774,11593.809,-1800.2284)"><path
         style="color:#dfdfdf;fill:#000000"
         class="ColorScheme-Text"
         d="m -1517.3145,128.55688 v 14 h 16 v -14 z m 7,2 v 10 h -5 v -10 z"
         id="path1" /></g><text
       xml:space="preserve"
       style="font-size:148.683px;line-height:0.7;font-family:'Passero One';-inkscape-font-specification:'Passero One, Normal';letter-spacing:0px;writing-mode:lr-tb;direction:ltr;fill:#1a1a1a;stroke-width:9.58414;fill-opacity:1"
       x="-1535.4376"
       y="-552.22675"
       id="text1"><tspan
         sodipodi:role="line"
         id="tspan1"
         x="-1535.4376"
         y="-552.22675">Linkerine</tspan></text><text
       xml:space="preserve"
       style="font-size:81.1113px;line-height:0.7;font-family:'Passero One';-inkscape-font-specification:'Passero One, Normal';letter-spacing:0px;writing-mode:lr-tb;direction:ltr;fill:#000000;stroke-width:5.22845"
       x="-2033.2146"
       y="-398.47659"
       id="text2"><tspan
         sodipodi:role="line"
         id="tspan2"
         x="-2033.2146"
         y="-398.47659"
         style="font-style:normal;font-variant:normal;font-weight:normal;font-stretch:normal;font-family:'Noto Sans';-inkscape-font-specification:'Noto Sans';stroke-width:5.22845">80 articles</tspan><tspan
         sodipodi:role="line"
         x="-2033.2146"
         y="-338.58713"
         id="tspan3"
         style="font-style:normal;font-variant:normal;font-weight:normal;font-stretch:normal;font-family:'Noto Sans';-inkscape-font-specification:'Noto Sans';stroke-width:5.22845">online</tspan></text><path
       style="color:#dfdfdf;fill:#000000;stroke-width:10.0286"
       class="ColorScheme-Text"
       d="m -1461.5142,-465.84362 a 55.157338,55.157338 0 0 0 -55.1573,55.15734 55.157338,55.157338 0 0 0 55.1573,55.15735 55.157338,55.157338 0 0 0 31.2612,-9.71773 l 36.7227,36.72476 a 10.028607,10.028607 0 0 0 7.2307,3.07878 10.028607,10.028607 0 0 0 10.0285,-10.02862 10.028607,10.028607 0 0 0 -3.0386,-7.19051 l -36.805,-36.80197 a 55.157338,55.157338 0 0 0 9.7577,-31.22206 55.157338,55.157338 0 0 0 -55.1572,-55.15734 z m 0,20.05722 a 35.100124,35.100124 0 0 1 35.1002,35.10012 35.100124,35.100124 0 0 1 -35.1002,35.10013 35.100124,35.100124 0 0 1 -35.1001,-35.10013 35.100124,35.100124 0 0 1 35.1001,-35.10012 z"
       id="path1-2" /><path
       style="color:#dfdfdf;fill:#000000;stroke-width:10.0286"
       class="ColorScheme-Text"
       d="m -796.28608,-181.86555 a 55.157338,55.157338 0 0 0 -55.1573,55.15734 55.157338,55.157338 0 0 0 55.1573,55.157346 55.157338,55.157338 0 0 0 31.2612,-9.71773 l 36.7227,36.72476 a 10.028607,10.028607 0 0 0 7.2307,3.07878 10.028607,10.028607 0 0 0 10.0285,-10.02862 10.028607,10.028607 0 0 0 -3.0386,-7.19051 l -36.805,-36.80197 a 55.157338,55.157338 0 0 0 9.7577,-31.222056 55.157338,55.157338 0 0 0 -55.1572,-55.15734 z m 0,20.05722 a 35.100124,35.100124 0 0 1 35.1002,35.10012 35.100124,35.100124 0 0 1 -35.1002,35.100126 35.100124,35.100124 0 0 1 -35.1001,-35.100126 35.100124,35.100124 0 0 1 35.1001,-35.10012 z"
       id="path1-2-7" /><g
       inkscape:label="Layer 1"
       id="layer1-3"
       transform="matrix(0.46060335,0,0,0.46060335,-1795.5873,-710.11649)"><radialGradient
         id="qleorMOLqjiXYpxSjD5yKa_119008_gr1"
         cx="31.5"
         cy="32"
         r="28.802999"
         gradientUnits="userSpaceOnUse"
         spreadMethod="reflect"
         gradientTransform="matrix(6.6218684,0,0,6.6218684,47.411115,44.100214)"><stop
           offset="0"
           stop-color="#afeeff"
           id="stop1" /><stop
           offset=".193"
           stop-color="#bbf1ff"
           id="stop2" /><stop
           offset=".703"
           stop-color="#d7f8ff"
           id="stop3" /><stop
           offset="1"
           stop-color="#e1faff"
           id="stop4" /></radialGradient><path
         fill="url(#qleorMOLqjiXYpxSjD5yKa_119008_gr1)"
         d="m 391.74828,222.89066 h 28.08333 c 18.99153,0 36.03621,-13.78674 37.94994,-32.68554 C 459.96676,168.5185 442.8095,150.0501 421.54668,150.0501 H 402.628 c -8.6614,0 -16.54804,-6.23118 -17.41551,-14.84622 -0.99328,-9.91294 6.76093,-18.26312 16.46858,-18.26312 h 3.31094 c 10.97244,0 19.86561,-8.89317 19.86561,-19.8656 v 0 c 0,-10.97244 -8.89317,-19.86561 -19.86561,-19.86561 h -215.21072 -58.5638 c -7.80719,0 -15.25679,4.90018 -17.09105,12.48885 -2.63551,10.83999 5.62859,20.62049 16.05803,20.62049 h 2.6024 c 6.59537,0 12.71399,4.5095 13.77349,11.01879 1.34423,8.29721 -5.01938,15.46868 -13.06495,15.46868 h -18.6207 c -12.76696,0 -24.593622,8.46276 -27.162902,20.97146 -3.483105,16.95199 9.54211,32.0035 25.918002,32.0035 h 8.98587 c 8.6614,0 16.54805,6.23117 17.41552,14.84622 0.99327,9.91294 -6.76094,18.26312 -16.4686,18.26312 H 85.235228 c -15.541526,0 -29.48718,11.28366 -31.049941,26.7391 -1.794527,17.74661 12.250456,32.85771 29.646105,32.85771 h 68.821088 c 6.59537,0 12.71398,4.5095 13.77348,11.01879 1.34424,8.2972 -5.01938,15.46869 -13.06495,15.46869 h -2.55603 c -11.05852,0 -21.15688,7.42974 -23.42156,18.25649 -3.10566,14.8661 8.31045,28.09658 22.66665,28.09658 h 25.54055 c 8.66141,0 16.54805,6.23118 17.41552,14.84623 0.99328,9.91293 -6.76093,18.26311 -16.46858,18.26311 h -5.86698 c -11.05852,0 -21.15687,7.42974 -23.42155,18.2565 -3.10566,14.86609 8.31045,28.09659 22.66666,28.09659 h 172.16857 c 12.80007,0 23.17653,-10.37648 23.17653,-23.17654 v 0 c 0,-12.80007 -10.37646,-23.17655 -23.17653,-23.17655 v 0 c -5.4829,0 -9.9328,-4.44988 -9.9328,-9.93279 0,-5.48291 4.4499,-9.93281 9.9328,-9.93281 h 28.73229 c 6.76093,0 13.16428,-4.54922 14.16418,-11.23731 1.21179,-8.16477 -5.15182,-15.25016 -13.09805,-15.25016 h -3.31095 c -5.4829,0 -9.9328,-4.4499 -9.9328,-9.93281 0,-5.48291 4.4499,-9.93279 9.9328,-9.93279 h 38.32738 c 15.54153,0 29.48718,-11.28367 31.04994,-26.73911 1.78791,-17.74661 -12.25046,-32.85772 -29.64611,-32.85772 h -15.42895 c -10.75391,0 -20.40198,-8.05219 -20.95821,-18.79947 -0.6026,-11.45584 8.5091,-20.93173 19.8325,-20.93173 z"
         id="path4"
         style="fill:url(#qleorMOLqjiXYpxSjD5yKa_119008_gr1);stroke-width:1" /><radialGradient
         id="qleorMOLqjiXYpxSjD5yKb_119008_gr2"
         cx="55"
         cy="47"
         r="2"
         gradientUnits="userSpaceOnUse"
         spreadMethod="reflect"
         gradientTransform="matrix(6.6218684,0,0,6.6218684,-231.86867,-1.782402)"><stop
           offset="0"
           stop-color="#e9ce8e"
           id="stop5" /><stop
           offset="0"
           stop-color="#e9ce8e"
           id="stop6" /><stop
           offset=".241"
           stop-color="#f1dca9"
           id="stop7" /><stop
           offset=".521"
           stop-color="#f9e8c0"
           id="stop8" /><stop
           offset=".782"
           stop-color="#fdefcf"
           id="stop9" /><stop
           offset="1"
           stop-color="#fff2d4"
           id="stop10" /></radialGradient><radialGradient
         id="qleorMOLqjiXYpxSjD5yKc_119008_gr3"
         cx="12.25"
         cy="31.125"
         r="23.625999"
         fx="35.875999"
         fy="31.032"
         gradientUnits="userSpaceOnUse"
         spreadMethod="reflect"
         gradientTransform="matrix(6.6218684,0,0,6.6218684,360.95464,237.43669)"><stop
           offset="0"
           stop-color="#afeeff"
           id="stop11" /><stop
           offset=".193"
           stop-color="#bbf1ff"
           id="stop12" /><stop
           offset=".703"
           stop-color="#d7f8ff"
           id="stop13" /><stop
           offset="1"
           stop-color="#e1faff"
           id="stop14" /></radialGradient><path
         fill="url(#qleorMOLqjiXYpxSjD5yKc_119008_gr3)"
         d="m 397.37492,270.54603 a 16.554671,16.554671 0 1 0 0,33.10934 16.554671,16.554671 0 1 0 0,-33.10934 z"
         id="path14"
         style="fill:url(#radialGradient6);stroke-width:1" /><linearGradient
         id="qleorMOLqjiXYpxSjD5yKd_119008_gr4"
         x1="32.000999"
         x2="32.000999"
         y1="53.500999"
         y2="10.5"
         gradientUnits="userSpaceOnUse"
         spreadMethod="reflect"
         gradientTransform="matrix(6.3962337,-1.7138656,1.7138656,6.3962337,-21.97058,141.77059)"><stop
           offset="0"
           stop-color="#37ab6a"
           id="stop15" /><stop
           offset=".422"
           stop-color="#39b66f"
           id="stop16" /><stop
           offset="1"
           stop-color="#3ac074"
           id="stop17" /></linearGradient><linearGradient
         id="qleorMOLqjiXYpxSjD5yKe_119008_gr5"
         x1="15"
         x2="15"
         y1="23"
         y2="41"
         gradientUnits="userSpaceOnUse"
         spreadMethod="reflect"
         gradientTransform="matrix(6.3962337,1.7138657,-1.7138657,6.3962337,91.234286,79.057935)"><stop
           offset="0"
           stop-color="#62de8f"
           id="stop18" /><stop
           offset=".478"
           stop-color="#5dd18d"
           id="stop19" /><stop
           offset="1"
           stop-color="#56be89"
           id="stop20" /></linearGradient><linearGradient
         id="qleorMOLqjiXYpxSjD5yKf_119008_gr6"
         x1="49"
         x2="49"
         y1="6"
         y2="24"
         gradientUnits="userSpaceOnUse"
         spreadMethod="reflect"
         gradientTransform="matrix(6.3962337,1.7138657,-1.7138657,6.3962337,91.958432,199.2528)"><stop
           offset="0"
           stop-color="#62de8f"
           id="stop21" /><stop
           offset=".478"
           stop-color="#5dd18d"
           id="stop22" /><stop
           offset="1"
           stop-color="#56be89"
           id="stop23" /></linearGradient><linearGradient
         id="qleorMOLqjiXYpxSjD5yKg_119008_gr7"
         x1="49"
         x2="49"
         y1="40"
         y2="58"
         gradientUnits="userSpaceOnUse"
         spreadMethod="reflect"
         gradientTransform="matrix(6.3962337,1.7138657,-1.7138657,6.3962337,106.72404,-264.57057)"><stop
           offset="0"
           stop-color="#62de8f"
           id="stop24" /><stop
           offset=".478"
           stop-color="#5dd18d"
           id="stop25" /><stop
           offset="1"
           stop-color="#56be89"
           id="stop26" /></linearGradient><path
         fill="url(#qleorMOLqjiXYpxSjD5yKd_119008_gr4)"
         d="m 383.11282,400.00292 c -4.32386,1.15857 -8.9739,1.35566 -13.66584,0.39854 L 122.83934,349.93693 c -11.05385,-2.26199 -19.88534,-10.58328 -22.80576,-21.48246 -2.920428,-10.89919 0.56723,-22.52136 9.00914,-30.00723 l 188.33621,-167.0074 c 12.33734,-10.90849 31.14793,-9.78571 42.07047,2.52729 10.91614,12.31472 9.78571,31.14793 -2.5273,42.07048 L 193.17554,303.49716 381.3952,342.01347 c 16.12465,3.3027 26.52024,19.04751 23.22395,35.17045 -2.34558,11.4327 -10.94615,19.9894 -21.50633,22.819 z"
         id="path17"
         style="fill:url(#qleorMOLqjiXYpxSjD5yKd_119008_gr4);stroke-width:1" /><path
         fill="url(#qleorMOLqjiXYpxSjD5yKe_119008_gr5)"
         d="m 189.9002,324.8702 c -8.52133,31.80206 -41.18882,50.66264 -72.99088,42.14131 -31.80208,-8.52134 -50.662668,-41.18884 -42.141333,-72.9909 8.52134,-31.80207 41.188833,-50.66265 72.990913,-42.14131 31.80206,8.52134 50.66264,41.18882 42.1413,72.9909 z"
         id="path20"
         style="fill:url(#qleorMOLqjiXYpxSjD5yKe_119008_gr5);stroke-width:1" /><path
         fill="url(#qleorMOLqjiXYpxSjD5yKf_119008_gr6)"
         d="m 437.23201,394.60051 c -8.52134,31.80209 -41.18882,50.66265 -72.99089,42.14131 -31.80209,-8.52134 -50.66267,-41.18881 -42.14132,-72.9909 8.52134,-31.80208 41.18881,-50.66265 72.9909,-42.1413 31.80207,8.52133 50.66265,41.18881 42.14131,72.99089 z"
         id="path23"
         style="fill:url(#qleorMOLqjiXYpxSjD5yKf_119008_gr6);stroke-width:1" /><path
         fill="url(#qleorMOLqjiXYpxSjD5yKg_119008_gr7)"
         d="m 393.72618,148.24909 c -8.52133,31.80206 -41.18882,50.66264 -72.99088,42.1413 -31.8021,-8.52134 -50.66267,-41.18882 -42.14133,-72.99089 8.52134,-31.802077 41.18881,-50.662661 72.99091,-42.141315 31.80206,8.521337 50.66264,41.188825 42.1413,72.990905 z"
         id="path26"
         style="fill:url(#qleorMOLqjiXYpxSjD5yKg_119008_gr7);stroke-width:1" /><path
         fill="url(#qleorMOLqjiXYpxSjD5yKb_119008_gr2)"
         d="m 132.33409,296.20167 a 13.243737,13.243737 0 1 0 0,26.48747 13.243737,13.243737 0 1 0 0,-26.48747 z"
         id="path10"
         style="fill:url(#qleorMOLqjiXYpxSjD5yKb_119008_gr2);stroke-width:1" /><path
         fill="url(#qleorMOLqjiXYpxSjD5yKc_119008_gr3)"
         d="m 379.66591,357.34023 a 21.835508,21.835508 0 1 0 0,43.67101 21.835508,21.835508 0 1 0 0,-43.67101 z"
         id="path15"
         style="fill:url(#radialGradient15);stroke-width:1" /><path
         fill="url(#qleorMOLqjiXYpxSjD5yKc_119008_gr3)"
         d="m 336.16007,116.26962 a 16.554671,16.554671 0 1 0 0,33.10934 16.554671,16.554671 0 1 0 0,-33.10934 z"
         id="path16"
         style="fill:url(#radialGradient16);stroke-width:1" /></g><g
       id="g6"
       transform="matrix(10.02861,0,0,10.02861,11246.051,1504.2078)"><path
         style="color:#dfdfdf;fill:#000000"
         class="ColorScheme-Text"
         d="m -1247.3145,-196.44312 v 6 h -6 v 2 h 6 v 6 h 2 v -6 h 6 v -2 h -6 v -6 z"
         id="path1-6" /></g><path
       style="color:#dfdfdf;fill:#000000;stroke-width:12.7637"
       class="ColorScheme-Text"
       d="m -1026.9497,-465.84362 c -26.4207,0 -48.8823,16.21625 -58.5828,39.06325 -24.6338,3.70147 -43.5266,24.75516 -43.5266,50.28252 0,28.20774 22.847,51.05473 51.0548,51.05473 h 108.4912 c 24.6339,0 44.6729,-20.03898 44.6729,-44.67289 0,-22.97463 -17.2309,-41.74617 -39.4398,-44.29891 -5.8712,-29.22882 -31.6539,-51.4287 -62.6697,-51.4287 z m 0,31.9092 38.2911,44.67289 h -25.5274 v 38.29104 h -25.5273 v -38.29104 h -25.5274 z"
       id="path1-20" /><rect
       style="fill:#5aca8b;fill-opacity:1;stroke-width:11.3367"
       id="rect6"
       width="212.74467"
       height="166.07375"
       x="-870.87256"
       y="-478.68024"
       ry="43.165577" /><path
       style="color:#dfdfdf;fill:#000000;stroke-width:10.0286"
       class="ColorScheme-Text"
       d="m -764.89269,-465.84362 a 70.200234,70.200234 0 0 0 -70.20019,70.20024 70.200234,70.200234 0 0 0 70.20019,70.20026 70.200234,70.200234 0 0 0 67.2017,-50.14305 h -21.27069 a 50.143025,50.143025 0 0 1 -45.93101,30.08585 50.143025,50.143025 0 0 1 -50.14299,-50.14306 50.143025,50.143025 0 0 1 50.14299,-50.14304 50.143025,50.143025 0 0 1 35.39095,14.74907 l -25.36234,25.36537 h 60.17165 v -60.17164 l -20.58871,20.58573 a 70.200234,70.200234 0 0 0 -49.61155,-20.58573 z"
       id="path1-9" /><g
       id="g9"><rect
         style="fill:none;fill-opacity:1;stroke:#ececec;stroke-width:9.40337"
         id="rect8"
         width="1084.0077"
         height="136.80605"
         x="-1982.2904"
         y="-175.49774"
         ry="46.374939" /><text
         xml:space="preserve"
         style="font-style:normal;font-variant:normal;font-weight:normal;font-stretch:normal;font-size:75.5097px;line-height:0.7;font-family:'Noto Sans';-inkscape-font-specification:'Noto Sans';letter-spacing:0px;writing-mode:lr-tb;direction:ltr;fill:#000000;fill-opacity:1;stroke:none;stroke-width:4.86739"
         x="-1933.9125"
         y="-81.884605"
         id="text8"><tspan
           sodipodi:role="line"
           id="tspan8"
           x="-1933.9125"
           y="-81.884605"
           style="stroke-width:4.86739">Search articles...</tspan></text><rect
         style="fill:none;fill-opacity:1;stroke:#ececec;stroke-width:9.40337;filter:url(#filter9)"
         id="rect9"
         width="1084.0077"
         height="136.80605"
         x="-1974.2904"
         y="-163.49774"
         ry="46.374939" /></g><g
       id="g13"
       transform="translate(0,205.55037)"><rect
         style="fill:none;fill-opacity:1;stroke:#ececec;stroke-width:9.40337"
         id="rect12"
         width="1084.0077"
         height="136.80605"
         x="-1982.2904"
         y="-175.49774"
         ry="46.374939" /><text
         xml:space="preserve"
         style="font-style:normal;font-variant:normal;font-weight:normal;font-stretch:normal;font-size:75.5097px;line-height:0.7;font-family:'Noto Sans';-inkscape-font-specification:'Noto Sans';letter-spacing:0px;writing-mode:lr-tb;direction:ltr;fill:#000000;fill-opacity:1;stroke:none;stroke-width:4.86739"
         x="-1933.9125"
         y="-81.884605"
         id="text12"><tspan
           sodipodi:role="line"
           id="tspan12"
           x="-1933.9125"
           y="-81.884605"
           style="stroke-width:4.86739">Newest first</tspan></text><rect
         style="fill:none;fill-opacity:1;stroke:#ececec;stroke-width:9.40337;filter:url(#filter9)"
         id="rect13"
         width="1084.0077"
         height="136.80605"
         x="-1974.2904"
         y="-163.49774"
         ry="46.374939" /></g><text
       xml:space="preserve"
       style="font-style:normal;font-variant:normal;font-weight:normal;font-stretch:normal;font-size:70.8134px;line-height:0.7;font-family:'Noto Sans';-inkscape-font-specification:'Noto Sans';letter-spacing:0px;writing-mode:lr-tb;direction:ltr;fill:#000000;fill-opacity:1;stroke:none;stroke-width:4.56467"
       x="-1919.1385"
       y="322.69339"
       id="text10"
       transform="scale(0.92765222,1.0779902)"><tspan
         sodipodi:role="line"
         id="tspan10"
         x="-1919.1385"
         y="322.69339"
         style="stroke-width:4.56467">All folders</tspan></text><g
       id="g15"><rect
         style="fill:none;fill-opacity:1;stroke:#ececec;stroke-width:7.61299"
         id="rect10"
         width="697.24799"
         height="139.41005"
         x="-1840.5312"
         y="242.34177"
         ry="47.257648" /><rect
         style="fill:none;fill-opacity:1;stroke:#ececec;stroke-width:9.40337;filter:url(#filter9)"
         id="rect11"
         width="1084.0077"
         height="136.80605"
         x="-1974.2904"
         y="-163.49774"
         ry="46.374939"
         transform="matrix(0.64321314,0,0,1.0190342,-565.49604,421.17997)" /></g><g
       id="g14"
       transform="matrix(2.5079636,0,0,2.5079636,2978.9204,-459.11538)"><rect
         style="opacity:0.2"
         width="40"
         height="26"
         x="-1979.3145"
         y="299.55688"
         rx="2"
         ry="2"
         id="rect1" /><path
         style="fill:#3a87e5"
         d="m -1979.3145,316.55688 c 0,1.108 0.892,2 2,2 h 36 c 1.108,0 2,-0.892 2,-2 v -22 c 0,-1.108 -0.892,-2 -2,-2 h -18 c -3,0 -4,-4 -7,-4 h -11 c -1.108,0 -2,0.892 -2,2"
         id="path1-29" /><rect
         style="opacity:0.2"
         width="40"
         height="26"
         x="-1979.3145"
         y="297.55688"
         rx="2"
         ry="2"
         id="rect2" /><rect
         style="fill:#e4e4e4"
         width="36"
         height="16"
         x="-1977.3145"
         y="295.55688"
         rx="2"
         ry="2"
         id="rect3" /><rect
         style="fill:#93c0ea"
         width="40"
         height="26"
         x="-1979.3145"
         y="298.55688"
         rx="2"
         ry="2"
         id="rect4" /><path
         style="opacity:0.1;fill:#ffffff"
         d="m -1977.3145,288.55688 c -1.108,0 -2,0.892 -2,2 v 1 c 0,-1.108 0.892,-2 2,-2 h 11 c 3,0 4,4 7,4 h 18 c 1.108,0 2,0.892 2,2 v -1 c 0,-1.108 -0.892,-2 -2,-2 h -18 c -3,0 -4,-4 -7,-4 z"
         id="path4-3" /></g><rect
       style="fill:none;fill-opacity:1;stroke:#ececec;stroke-width:5.48512"
       id="rect15"
       width="348.55957"
       height="144.76559"
       x="-1072.0553"
       y="236.28729"
       ry="49.07309" /><rect
       style="fill:none;fill-opacity:1;stroke:#ececec;stroke-width:9.40337;filter:url(#filter9)"
       id="rect16"
       width="1084.0077"
       height="136.80605"
       x="-1974.2904"
       y="-163.49774"
       ry="46.374939"
       transform="matrix(0.32154715,0,0,1.0581812,-430.65546,419.99571)" /><path
       style="color:#dfdfdf;fill:#000000;stroke-width:5.11101"
       class="ColorScheme-Text"
       d="m -1015.2447,278.55781 v 10.22201 h 71.55415 v -10.22201 z m 0,20.44403 v 10.22201 h 71.55415 v -10.22201 z m 0,20.44403 v 10.22201 h 71.55415 v -10.22201 z m 0,20.44403 v 10.22201 h 71.55415 V 339.8899 Z"
       id="path1-8" /><path
       style="color:#dfdfdf;fill:#000000;stroke-width:6.45048"
       class="ColorScheme-Text"
       d="m -863.11641,278.4829 v 12.90095 h 12.90096 V 278.4829 Z m 25.80192,0 v 12.90095 h 64.50476 V 278.4829 Z m -25.80192,25.80191 v 12.90096 h 12.90096 v -12.90096 z m 25.80192,0 v 12.90096 h 64.50476 v -12.90096 z m -25.80192,25.8019 v 12.90096 h 12.90096 v -12.90096 z m 25.80192,0 v 12.90096 h 64.50476 v -12.90096 z"
       id="path1-61" /><g
       id="g31"><rect
         style="fill:#f9f9f9;fill-opacity:1;stroke:#999999;stroke-width:1.75782;stroke-dasharray:none"
         id="rect23"
         width="1311.6536"
         height="452.45303"
         x="-2004.604"
         y="500.84909"
         ry="65.089729" /><text
         xml:space="preserve"
         style="font-style:normal;font-variant:normal;font-weight:normal;font-stretch:normal;font-size:105.971px;line-height:0.7;font-family:'Noto Sans';-inkscape-font-specification:'Noto Sans';letter-spacing:0px;writing-mode:lr-tb;direction:ltr;fill:#000000;fill-opacity:1;stroke:none;stroke-width:1.42547;stroke-dasharray:none"
         x="-1848.2327"
         y="653.50446"
         id="text24"><tspan
           sodipodi:role="line"
           id="tspan24"
           x="-1848.2327"
           y="653.50446"
           style="stroke-width:1.42547">Bookmarks</tspan></text><circle
         style="fill:#00ff00;fill-opacity:1;stroke:none;stroke-width:2;stroke-dasharray:none"
         id="circle24"
         cx="-1929.8754"
         cy="618.18213"
         r="33.429596" /><text
         xml:space="preserve"
         style="font-style:normal;font-variant:normal;font-weight:normal;font-stretch:normal;font-size:66.6667px;line-height:0.7;font-family:'Noto Sans';-inkscape-font-specification:'Noto Sans';letter-spacing:0px;writing-mode:lr-tb;direction:ltr;fill:#000000;fill-opacity:1;stroke:none;stroke-width:1.42547;stroke-dasharray:none"
         x="-1944.8413"
         y="752.16864"
         id="text28"><tspan
           sodipodi:role="line"
           id="tspan25"
           x="-1944.8413"
           y="752.16864"
           style="font-size:66.6667px;stroke-width:1.42547">In this blog I will be kinda</tspan><tspan
           sodipodi:role="line"
           x="-1944.8413"
           y="798.83533"
           style="font-size:66.6667px;stroke-width:1.42547"
           id="tspan26">discussing about different</tspan><tspan
           sodipodi:role="line"
           x="-1944.8413"
           y="845.50201"
           style="font-size:66.6667px;stroke-width:1.42547"
           id="tspan27">types of bookmarks that</tspan><tspan
           sodipodi:role="line"
           x="-1944.8413"
           y="892.1687"
           style="font-size:66.6667px;stroke-width:1.42547"
           id="tspan28">I have collected over all ...</tspan></text><text
         xml:space="preserve"
         style="font-style:normal;font-variant:normal;font-weight:normal;font-stretch:normal;font-size:40.5221px;line-height:0.7;font-family:'Noto Sans';-inkscape-font-specification:'Noto Sans';letter-spacing:0px;writing-mode:lr-tb;direction:ltr;fill:#000000;fill-opacity:1;stroke:none;stroke-width:0.545083;stroke-dasharray:none"
         x="-1065.6891"
         y="679.48969"
         id="text29"><tspan
           sodipodi:role="line"
           id="tspan29"
           x="-1065.6891"
           y="679.48969"
           style="stroke-width:0.545083">sharafat.pages.dev</tspan></text><g
         id="g30"
         inkscape:label="Layer 2"
         transform="matrix(0.14197392,0,0,0.14197392,-959.99163,705.08521)"><path
           id="path29"
           style="fill:#000000;stroke:none;stroke-width:0.826959;stroke-linecap:round;stroke-linejoin:round;stroke-dasharray:none"
           d="m 531.75195,103.52148 a 47.554899,47.554899 0 0 0 -15.51758,5.64844 l -336.99414,194.5625 a 47.554899,47.554899 0 0 0 -23.77539,41.17969 v 226.33203 h -0.002 l -0.01,109.8086 95.10547,-54.90625 0.006,-27.44922 V 372.36524 L 540.00781,205.25586 781.90238,344.91211 759.79297,357.67773 563.7832,244.51172 a 47.554899,47.554899 0 0 0 -47.54883,0 L 296.44922,371.40234 A 47.550144,47.550144 0 0 0 279.04492,436.35742 47.550144,47.550144 0 0 0 344,453.76172 L 540.00781,340.59766 736.01756,453.76172 a 47.554899,47.554899 0 0 0 47.54882,0 l 117.21094,-67.67187 a 47.554899,47.554899 0 0 0 0,-82.35743 L 563.7832,109.16992 a 47.554899,47.554899 0 0 0 -32.03125,-5.64844 z" /><path
           id="path30"
           style="display:inline;fill:#000000;stroke:none;stroke-width:0.826959;stroke-linecap:round;stroke-linejoin:round;stroke-dasharray:none"
           d="m 924.54688,398.94727 -95.10547,54.90625 -0.008,27.44921 h 0.002 V 707.63477 L 539.99219,874.74609 298.09766,735.08789 320.20703,722.32227 516.2168,835.48828 a 47.554899,47.554899 0 0 0 47.54882,0 L 783.55078,708.59766 A 47.550144,47.550144 0 0 0 800.95508,643.64258 47.550144,47.550144 0 0 0 736,626.23828 L 539.99219,739.40234 343.98242,626.23828 a 47.554899,47.554899 0 0 0 -47.54883,0 l -117.21093,67.67188 a 47.554899,47.554899 0 0 0 0,82.35742 l 336.99414,194.5625 a 47.554899,47.554899 0 0 0 32.03125,5.64844 47.554899,47.554899 0 0 0 15.51757,-5.64844 l 336.99415,-194.5625 a 47.554899,47.554899 0 0 0 23.77539,-41.17969 V 508.75781 h 0.002 z" /></g></g><g
       id="g38"
       transform="translate(0,522.09795)"><rect
         style="fill:#f9f9f9;fill-opacity:1;stroke:#999999;stroke-width:1.75782;stroke-dasharray:none"
         id="rect31"
         width="1311.6536"
         height="452.45303"
         x="-2004.604"
         y="500.84909"
         ry="65.089729" /><text
         xml:space="preserve"
         style="font-style:normal;font-variant:normal;font-weight:normal;font-stretch:normal;font-size:105.971px;line-height:0.7;font-family:'Noto Sans';-inkscape-font-specification:'Noto Sans';letter-spacing:0px;writing-mode:lr-tb;direction:ltr;fill:#000000;fill-opacity:1;stroke:none;stroke-width:1.42547;stroke-dasharray:none"
         x="-1848.2327"
         y="653.50446"
         id="text31"><tspan
           sodipodi:role="line"
           id="tspan31"
           x="-1848.2327"
           y="653.50446"
           style="stroke-width:1.42547">Bookmarks</tspan></text><circle
         style="fill:#00ff00;fill-opacity:1;stroke:none;stroke-width:2;stroke-dasharray:none"
         id="circle31"
         cx="-1929.8754"
         cy="618.18213"
         r="33.429596" /><text
         xml:space="preserve"
         style="font-style:normal;font-variant:normal;font-weight:normal;font-stretch:normal;font-size:66.6667px;line-height:0.7;font-family:'Noto Sans';-inkscape-font-specification:'Noto Sans';letter-spacing:0px;writing-mode:lr-tb;direction:ltr;fill:#000000;fill-opacity:1;stroke:none;stroke-width:1.42547;stroke-dasharray:none"
         x="-1944.8413"
         y="752.16864"
         id="text35"><tspan
           sodipodi:role="line"
           id="tspan32"
           x="-1944.8413"
           y="752.16864"
           style="font-size:66.6667px;stroke-width:1.42547">In this blog I will be kinda</tspan><tspan
           sodipodi:role="line"
           x="-1944.8413"
           y="798.83533"
           style="font-size:66.6667px;stroke-width:1.42547"
           id="tspan33">discussing about different</tspan><tspan
           sodipodi:role="line"
           x="-1944.8413"
           y="845.50201"
           style="font-size:66.6667px;stroke-width:1.42547"
           id="tspan34">types of bookmarks that</tspan><tspan
           sodipodi:role="line"
           x="-1944.8413"
           y="892.1687"
           style="font-size:66.6667px;stroke-width:1.42547"
           id="tspan35">I have collected over all ...</tspan></text><text
         xml:space="preserve"
         style="font-style:normal;font-variant:normal;font-weight:normal;font-stretch:normal;font-size:40.5221px;line-height:0.7;font-family:'Noto Sans';-inkscape-font-specification:'Noto Sans';letter-spacing:0px;writing-mode:lr-tb;direction:ltr;fill:#000000;fill-opacity:1;stroke:none;stroke-width:0.545083;stroke-dasharray:none"
         x="-1065.6891"
         y="679.48969"
         id="text36"><tspan
           sodipodi:role="line"
           id="tspan36"
           x="-1065.6891"
           y="679.48969"
           style="stroke-width:0.545083">sharafat.pages.dev</tspan></text><g
         id="g37"
         inkscape:label="Layer 2"
         transform="matrix(0.14197392,0,0,0.14197392,-959.99163,705.08521)"><path
           id="path36"
           style="fill:#000000;stroke:none;stroke-width:0.826959;stroke-linecap:round;stroke-linejoin:round;stroke-dasharray:none"
           d="m 531.75195,103.52148 a 47.554899,47.554899 0 0 0 -15.51758,5.64844 l -336.99414,194.5625 a 47.554899,47.554899 0 0 0 -23.77539,41.17969 v 226.33203 h -0.002 l -0.01,109.8086 95.10547,-54.90625 0.006,-27.44922 V 372.36524 L 540.00781,205.25586 781.90238,344.91211 759.79297,357.67773 563.7832,244.51172 a 47.554899,47.554899 0 0 0 -47.54883,0 L 296.44922,371.40234 A 47.550144,47.550144 0 0 0 279.04492,436.35742 47.550144,47.550144 0 0 0 344,453.76172 L 540.00781,340.59766 736.01756,453.76172 a 47.554899,47.554899 0 0 0 47.54882,0 l 117.21094,-67.67187 a 47.554899,47.554899 0 0 0 0,-82.35743 L 563.7832,109.16992 a 47.554899,47.554899 0 0 0 -32.03125,-5.64844 z" /><path
           id="path37"
           style="display:inline;fill:#000000;stroke:none;stroke-width:0.826959;stroke-linecap:round;stroke-linejoin:round;stroke-dasharray:none"
           d="m 924.54688,398.94727 -95.10547,54.90625 -0.008,27.44921 h 0.002 V 707.63477 L 539.99219,874.74609 298.09766,735.08789 320.20703,722.32227 516.2168,835.48828 a 47.554899,47.554899 0 0 0 47.54882,0 L 783.55078,708.59766 A 47.550144,47.550144 0 0 0 800.95508,643.64258 47.550144,47.550144 0 0 0 736,626.23828 L 539.99219,739.40234 343.98242,626.23828 a 47.554899,47.554899 0 0 0 -47.54883,0 l -117.21093,67.67188 a 47.554899,47.554899 0 0 0 0,82.35742 l 336.99414,194.5625 a 47.554899,47.554899 0 0 0 32.03125,5.64844 47.554899,47.554899 0 0 0 15.51757,-5.64844 l 336.99415,-194.5625 a 47.554899,47.554899 0 0 0 23.77539,-41.17969 V 508.75781 h 0.002 z" /></g></g><g
       id="g45"
       transform="translate(0,1035.9739)"><rect
         style="fill:#f9f9f9;fill-opacity:1;stroke:#999999;stroke-width:1.75782;stroke-dasharray:none"
         id="rect38"
         width="1311.6536"
         height="452.45303"
         x="-2004.604"
         y="500.84909"
         ry="65.089729" /><text
         xml:space="preserve"
         style="font-style:normal;font-variant:normal;font-weight:normal;font-stretch:normal;font-size:105.971px;line-height:0.7;font-family:'Noto Sans';-inkscape-font-specification:'Noto Sans';letter-spacing:0px;writing-mode:lr-tb;direction:ltr;fill:#000000;fill-opacity:1;stroke:none;stroke-width:1.42547;stroke-dasharray:none"
         x="-1848.2327"
         y="653.50446"
         id="text38"><tspan
           sodipodi:role="line"
           id="tspan38"
           x="-1848.2327"
           y="653.50446"
           style="stroke-width:1.42547">Bookmarks</tspan></text><circle
         style="fill:#00ff00;fill-opacity:1;stroke:none;stroke-width:2;stroke-dasharray:none"
         id="circle38"
         cx="-1929.8754"
         cy="618.18213"
         r="33.429596" /><text
         xml:space="preserve"
         style="font-style:normal;font-variant:normal;font-weight:normal;font-stretch:normal;font-size:66.6667px;line-height:0.7;font-family:'Noto Sans';-inkscape-font-specification:'Noto Sans';letter-spacing:0px;writing-mode:lr-tb;direction:ltr;fill:#000000;fill-opacity:1;stroke:none;stroke-width:1.42547;stroke-dasharray:none"
         x="-1944.8413"
         y="752.16864"
         id="text42"><tspan
           sodipodi:role="line"
           id="tspan39"
           x="-1944.8413"
           y="752.16864"
           style="font-size:66.6667px;stroke-width:1.42547">In this blog I will be kinda</tspan><tspan
           sodipodi:role="line"
           x="-1944.8413"
           y="798.83533"
           style="font-size:66.6667px;stroke-width:1.42547"
           id="tspan40">discussing about different</tspan><tspan
           sodipodi:role="line"
           x="-1944.8413"
           y="845.50201"
           style="font-size:66.6667px;stroke-width:1.42547"
           id="tspan41">types of bookmarks that</tspan><tspan
           sodipodi:role="line"
           x="-1944.8413"
           y="892.1687"
           style="font-size:66.6667px;stroke-width:1.42547"
           id="tspan42">I have collected over all ...</tspan></text><text
         xml:space="preserve"
         style="font-style:normal;font-variant:normal;font-weight:normal;font-stretch:normal;font-size:40.5221px;line-height:0.7;font-family:'Noto Sans';-inkscape-font-specification:'Noto Sans';letter-spacing:0px;writing-mode:lr-tb;direction:ltr;fill:#000000;fill-opacity:1;stroke:none;stroke-width:0.545083;stroke-dasharray:none"
         x="-1065.6891"
         y="679.48969"
         id="text43"><tspan
           sodipodi:role="line"
           id="tspan43"
           x="-1065.6891"
           y="679.48969"
           style="stroke-width:0.545083">sharafat.pages.dev</tspan></text><g
         id="g44"
         inkscape:label="Layer 2"
         transform="matrix(0.14197392,0,0,0.14197392,-959.99163,705.08521)"><path
           id="path43"
           style="fill:#000000;stroke:none;stroke-width:0.826959;stroke-linecap:round;stroke-linejoin:round;stroke-dasharray:none"
           d="m 531.75195,103.52148 a 47.554899,47.554899 0 0 0 -15.51758,5.64844 l -336.99414,194.5625 a 47.554899,47.554899 0 0 0 -23.77539,41.17969 v 226.33203 h -0.002 l -0.01,109.8086 95.10547,-54.90625 0.006,-27.44922 V 372.36524 L 540.00781,205.25586 781.90238,344.91211 759.79297,357.67773 563.7832,244.51172 a 47.554899,47.554899 0 0 0 -47.54883,0 L 296.44922,371.40234 A 47.550144,47.550144 0 0 0 279.04492,436.35742 47.550144,47.550144 0 0 0 344,453.76172 L 540.00781,340.59766 736.01756,453.76172 a 47.554899,47.554899 0 0 0 47.54882,0 l 117.21094,-67.67187 a 47.554899,47.554899 0 0 0 0,-82.35743 L 563.7832,109.16992 a 47.554899,47.554899 0 0 0 -32.03125,-5.64844 z" /><path
           id="path44"
           style="display:inline;fill:#000000;stroke:none;stroke-width:0.826959;stroke-linecap:round;stroke-linejoin:round;stroke-dasharray:none"
           d="m 924.54688,398.94727 -95.10547,54.90625 -0.008,27.44921 h 0.002 V 707.63477 L 539.99219,874.74609 298.09766,735.08789 320.20703,722.32227 516.2168,835.48828 a 47.554899,47.554899 0 0 0 47.54882,0 L 783.55078,708.59766 A 47.550144,47.550144 0 0 0 800.95508,643.64258 47.550144,47.550144 0 0 0 736,626.23828 L 539.99219,739.40234 343.98242,626.23828 a 47.554899,47.554899 0 0 0 -47.54883,0 l -117.21093,67.67188 a 47.554899,47.554899 0 0 0 0,82.35742 l 336.99414,194.5625 a 47.554899,47.554899 0 0 0 32.03125,5.64844 47.554899,47.554899 0 0 0 15.51757,-5.64844 l 336.99415,-194.5625 a 47.554899,47.554899 0 0 0 23.77539,-41.17969 V 508.75781 h 0.002 z" /></g></g><g
       id="g23"
       transform="translate(0,1562.1829)"><rect
         style="fill:#f9f9f9;fill-opacity:1;stroke:#999999;stroke-width:1.75782;stroke-dasharray:none"
         id="rect18"
         width="1311.6536"
         height="452.45303"
         x="-2004.604"
         y="500.84909"
         ry="65.089729" /><text
         xml:space="preserve"
         style="font-style:normal;font-variant:normal;font-weight:normal;font-stretch:normal;font-size:105.971px;line-height:0.7;font-family:'Noto Sans';-inkscape-font-specification:'Noto Sans';letter-spacing:0px;writing-mode:lr-tb;direction:ltr;fill:#000000;fill-opacity:1;stroke:none;stroke-width:1.42547;stroke-dasharray:none"
         x="-1848.2327"
         y="653.50446"
         id="text18"><tspan
           sodipodi:role="line"
           id="tspan18"
           x="-1848.2327"
           y="653.50446"
           style="stroke-width:1.42547">Bookmarks</tspan></text><circle
         style="fill:#00ff00;fill-opacity:1;stroke:none;stroke-width:2;stroke-dasharray:none"
         id="path18"
         cx="-1929.8754"
         cy="618.18213"
         r="33.429596" /><text
         xml:space="preserve"
         style="font-style:normal;font-variant:normal;font-weight:normal;font-stretch:normal;font-size:66.6667px;line-height:0.7;font-family:'Noto Sans';-inkscape-font-specification:'Noto Sans';letter-spacing:0px;writing-mode:lr-tb;direction:ltr;fill:#000000;fill-opacity:1;stroke:none;stroke-width:1.42547;stroke-dasharray:none"
         x="-1944.8413"
         y="752.16864"
         id="text19"><tspan
           sodipodi:role="line"
           id="tspan19"
           x="-1944.8413"
           y="752.16864"
           style="font-size:66.6667px;stroke-width:1.42547">In this blog I will be kinda</tspan><tspan
           sodipodi:role="line"
           x="-1944.8413"
           y="798.83533"
           style="font-size:66.6667px;stroke-width:1.42547"
           id="tspan20">discussing about different</tspan><tspan
           sodipodi:role="line"
           x="-1944.8413"
           y="845.50201"
           style="font-size:66.6667px;stroke-width:1.42547"
           id="tspan21">types of bookmarks that</tspan><tspan
           sodipodi:role="line"
           x="-1944.8413"
           y="892.1687"
           style="font-size:66.6667px;stroke-width:1.42547"
           id="tspan22">I have collected over all ...</tspan></text><text
         xml:space="preserve"
         style="font-style:normal;font-variant:normal;font-weight:normal;font-stretch:normal;font-size:40.5221px;line-height:0.7;font-family:'Noto Sans';-inkscape-font-specification:'Noto Sans';letter-spacing:0px;writing-mode:lr-tb;direction:ltr;fill:#000000;fill-opacity:1;stroke:none;stroke-width:0.545083;stroke-dasharray:none"
         x="-1065.6891"
         y="679.48969"
         id="text23"><tspan
           sodipodi:role="line"
           id="tspan23"
           x="-1065.6891"
           y="679.48969"
           style="stroke-width:0.545083">sharafat.pages.dev</tspan></text><g
         id="layer3"
         inkscape:label="Layer 2"
         transform="matrix(0.14197392,0,0,0.14197392,-959.99163,705.08521)"><path
           id="path25420"
           style="fill:#000000;stroke:none;stroke-width:0.826959;stroke-linecap:round;stroke-linejoin:round;stroke-dasharray:none"
           d="m 531.75195,103.52148 a 47.554899,47.554899 0 0 0 -15.51758,5.64844 l -336.99414,194.5625 a 47.554899,47.554899 0 0 0 -23.77539,41.17969 v 226.33203 h -0.002 l -0.01,109.8086 95.10547,-54.90625 0.006,-27.44922 V 372.36524 L 540.00781,205.25586 781.90238,344.91211 759.79297,357.67773 563.7832,244.51172 a 47.554899,47.554899 0 0 0 -47.54883,0 L 296.44922,371.40234 A 47.550144,47.550144 0 0 0 279.04492,436.35742 47.550144,47.550144 0 0 0 344,453.76172 L 540.00781,340.59766 736.01756,453.76172 a 47.554899,47.554899 0 0 0 47.54882,0 l 117.21094,-67.67187 a 47.554899,47.554899 0 0 0 0,-82.35743 L 563.7832,109.16992 a 47.554899,47.554899 0 0 0 -32.03125,-5.64844 z" /><path
           id="path36875"
           style="display:inline;fill:#000000;stroke:none;stroke-width:0.826959;stroke-linecap:round;stroke-linejoin:round;stroke-dasharray:none"
           d="m 924.54688,398.94727 -95.10547,54.90625 -0.008,27.44921 h 0.002 V 707.63477 L 539.99219,874.74609 298.09766,735.08789 320.20703,722.32227 516.2168,835.48828 a 47.554899,47.554899 0 0 0 47.54882,0 L 783.55078,708.59766 A 47.550144,47.550144 0 0 0 800.95508,643.64258 47.550144,47.550144 0 0 0 736,626.23828 L 539.99219,739.40234 343.98242,626.23828 a 47.554899,47.554899 0 0 0 -47.54883,0 l -117.21093,67.67188 a 47.554899,47.554899 0 0 0 0,82.35742 l 336.99414,194.5625 a 47.554899,47.554899 0 0 0 32.03125,5.64844 47.554899,47.554899 0 0 0 15.51757,-5.64844 l 336.99415,-194.5625 a 47.554899,47.554899 0 0 0 23.77539,-41.17969 V 508.75781 h 0.002 z" /></g></g><circle
       style="fill:#0000ff;fill-opacity:1;stroke:none;stroke-width:2;stroke-dasharray:none"
       id="path45"
       cx="-817.34723"
       cy="2278.1465"
       r="127.44123" /><path
       fill="#f3c72f"
       d="m -813.23459,2195.1163 c -49.86888,0 -89.76488,39.896 -89.76488,89.7647 0,49.869 39.89555,89.765 89.76488,89.765 7.9792,0 14.96066,-6.9819 14.96066,-14.9607 0,-3.9897 -0.99738,-6.9819 -3.98956,-9.9738 -1.99278,-2.9936 -3.98556,-5.9873 -3.98556,-9.9774 0,-7.9791 6.98192,-14.9606 14.96066,-14.9606 h 17.95298 c 27.92584,0 49.86887,-21.943 49.86887,-49.8689 0,-43.8861 -39.896,-79.792 -89.76486,-79.792 z"
       id="path1-206"
       style="stroke-width:4.48824" /><path
       fill="#da8015"
       d="m -871.58177,2284.881 c -7.18118,0 -13.46473,-6.2835 -13.46473,-13.4647 0,-7.1812 6.28355,-13.4647 13.46473,-13.4647 7.1812,0 13.46473,6.2835 13.46473,13.4647 0,7.1812 -6.28353,13.4647 -13.46473,13.4647 z"
       id="path2"
       style="stroke-width:4.48824" /><path
       fill="#327cc4"
       d="m -840.16405,2244.4869 c -7.1812,0 -13.46473,-6.2835 -13.46473,-13.4647 0,-7.1812 6.28353,-13.4647 13.46473,-13.4647 7.18118,0 13.46473,6.2835 13.46473,13.4647 0,7.1812 -6.28355,13.4647 -13.46473,13.4647 z"
       id="path3"
       style="stroke-width:4.48824" /><path
       fill="#4c9511"
       d="m -790.79338,2244.4869 c -7.18119,0 -13.46473,-6.2835 -13.46473,-13.4647 0,-7.1812 6.28354,-13.4647 13.46473,-13.4647 7.18119,0 13.46473,6.2835 13.46473,13.4647 0,7.1812 -6.28354,13.4647 -13.46473,13.4647 z"
       id="path4-1"
       style="stroke-width:4.48824" /><path
       fill="#d94d4d"
       d="m -759.37567,2284.881 c -7.18119,0 -13.46473,-6.2835 -13.46473,-13.4647 0,-7.1812 6.28354,-13.4647 13.46473,-13.4647 7.18118,0 13.46473,6.2835 13.46473,13.4647 0,7.1812 -6.28355,13.4647 -13.46473,13.4647 z"
       id="path5"
       style="stroke-width:4.48824" /><path
       fill="#ffffff"
       opacity="0.2"
       d="m -813.23459,2195.1163 c -49.86888,0 -89.76488,39.896 -89.76488,89.7647 0,0.7541 0.0359,1.4946 0.0525,2.2442 1.17951,-48.8142 40.59751,-87.5207 89.71102,-87.5207 48.77373,0 87.98752,34.353 89.68407,76.9239 0.0179,-0.5431 0.0808,-1.0772 0.0808,-1.6247 0,-43.8815 -39.896,-79.7874 -89.76487,-79.7874 z m 7.23953,146.7026 c -0.13914,0.79 -0.26032,1.5889 -0.26032,2.4103 0,3.9899 2.00176,6.9837 3.99454,9.9728 2.28002,2.2801 3.38863,4.5601 3.79706,7.2755 0.0808,-0.5925 0.19299,-1.1849 0.19299,-1.7953 0,-3.9901 -0.99639,-6.9748 -3.99005,-9.9685 -1.62474,-2.4415 -3.19114,-4.9146 -3.73422,-7.8948 z"
       id="path6"
       style="stroke-width:4.48824" /><path
       opacity="0.2"
       d="m -723.55052,2276.5284 c -0.83481,27.1405 -22.40979,48.2486 -49.78807,48.2486 h -17.95299 c -7.98009,0 -14.9638,6.9838 -14.9638,14.9639 0,0.7316 0.13914,1.4049 0.26032,2.078 1.22977,-6.9209 7.54026,-12.5536 14.70348,-12.5536 h 17.95299 c 27.92585,0 49.86886,-21.9431 49.86886,-49.8734 0,-0.9605 -0.0404,-1.912 -0.0808,-2.8635 z m -179.39509,10.5968 c -0.0179,0.7495 -0.0525,1.4901 -0.0525,2.2441 0,49.8689 39.896,89.7649 89.76488,89.7649 7.98009,0 14.9638,-6.9837 14.9638,-14.9638 0,-0.956 -0.0673,-1.8356 -0.19299,-2.6929 -0.956,7.1991 -7.40112,13.1685 -14.77081,13.1685 -49.11485,0 -88.5351,-38.7067 -89.71102,-87.5208 z"
       id="path7"
       style="stroke-width:4.48824" /></g></svg>
