<svg xmlns="http://www.w3.org/2000/svg" xmlns:xlink="http://www.w3.org/1999/xlink" contentStyleType="text/css" height="572px" preserveAspectRatio="none" style="width:1070px;height:572px;background:#FFFFFF;" version="1.1" viewBox="0 0 1070 572" width="1070px" zoomAndPan="magnify"><defs/><g><!--class USERS--><g id="elem_USERS"><rect codeLine="3" fill="#F1F1F1" height="129.4844" id="USERS" rx="2.5" ry="2.5" style="stroke:#181818;stroke-width:0.5;" width="166" x="288.5" y="7"/><ellipse cx="347.25" cy="23" fill="#ADD1B2" rx="11" ry="11" style="stroke:#181818;stroke-width:1.0;"/><path d="M351.3594,29 L343.6406,29 L343.6406,16.6094 L351.3594,16.6094 L351.3594,18.7656 L346.0938,18.7656 L346.0938,21.4375 L350.8594,21.4375 L350.8594,23.5938 L346.0938,23.5938 L346.0938,26.8438 L351.3594,26.8438 L351.3594,29 Z " fill="#000000"/><text fill="#000000" font-family="sans-serif" font-size="14" lengthAdjust="spacing" textLength="40" x="367.75" y="27.8467">Users</text><line style="stroke:#181818;stroke-width:0.5;" x1="289.5" x2="453.5" y1="39" y2="39"/><ellipse cx="299.5" cy="52.6484" fill="#000000" rx="3" ry="3" style="stroke:#000000;stroke-width:1.0;"/><text fill="#000000" font-family="sans-serif" font-size="14" lengthAdjust="spacing" textLength="116" x="308.5" y="55.9951">UserID : int &#171;PK&#187;</text><line style="stroke:#181818;stroke-width:1.0;" x1="289.5" x2="453.5" y1="63.2969" y2="63.2969"/><text fill="#000000" font-family="sans-serif" font-size="14" lengthAdjust="spacing" textLength="123" x="294.5" y="80.292">Username : string</text><text fill="#000000" font-family="sans-serif" font-size="14" lengthAdjust="spacing" textLength="88" x="294.5" y="96.5889">Email : string</text><text fill="#000000" font-family="sans-serif" font-size="14" lengthAdjust="spacing" textLength="154" x="294.5" y="112.8857">PasswordHash : string</text><text fill="#000000" font-family="sans-serif" font-size="14" lengthAdjust="spacing" textLength="83" x="294.5" y="129.1826">Role : string</text></g><!--class PRODUCTS--><g id="elem_PRODUCTS"><rect codeLine="12" fill="#F1F1F1" height="145.7813" id="PRODUCTS" rx="2.5" ry="2.5" style="stroke:#181818;stroke-width:0.5;" width="164" x="605.5" y="213.48"/><ellipse cx="652.25" cy="229.48" fill="#ADD1B2" rx="11" ry="11" style="stroke:#181818;stroke-width:1.0;"/><path d="M656.3594,235.48 L648.6406,235.48 L648.6406,223.0894 L656.3594,223.0894 L656.3594,225.2456 L651.0938,225.2456 L651.0938,227.9175 L655.8594,227.9175 L655.8594,230.0738 L651.0938,230.0738 L651.0938,233.3238 L656.3594,233.3238 L656.3594,235.48 Z " fill="#000000"/><text fill="#000000" font-family="sans-serif" font-size="14" lengthAdjust="spacing" textLength="62" x="672.75" y="234.3267">Products</text><line style="stroke:#181818;stroke-width:0.5;" x1="606.5" x2="768.5" y1="245.48" y2="245.48"/><ellipse cx="616.5" cy="259.1284" fill="#000000" rx="3" ry="3" style="stroke:#000000;stroke-width:1.0;"/><text fill="#000000" font-family="sans-serif" font-size="14" lengthAdjust="spacing" textLength="138" x="625.5" y="262.4751">ProductID : int &#171;PK&#187;</text><line style="stroke:#181818;stroke-width:1.0;" x1="606.5" x2="768.5" y1="269.7769" y2="269.7769"/><text fill="#000000" font-family="sans-serif" font-size="14" lengthAdjust="spacing" textLength="92" x="611.5" y="286.772">Name : string</text><text fill="#000000" font-family="sans-serif" font-size="14" lengthAdjust="spacing" textLength="114" x="611.5" y="303.0689">Category : string</text><text fill="#000000" font-family="sans-serif" font-size="14" lengthAdjust="spacing" textLength="93" x="611.5" y="319.3657">Brand : string</text><text fill="#000000" font-family="sans-serif" font-size="14" lengthAdjust="spacing" textLength="100" x="611.5" y="335.6626">Price : decimal</text><text fill="#000000" font-family="sans-serif" font-size="14" lengthAdjust="spacing" textLength="126" x="611.5" y="351.9595">StockQuantity : int</text></g><!--class PRODUCT_SPECS--><g id="elem_PRODUCT_SPECS"><rect codeLine="22" fill="#F1F1F1" height="113.1875" id="PRODUCT_SPECS" rx="2.5" ry="2.5" style="stroke:#181818;stroke-width:0.5;" width="163" x="900" y="444.41"/><ellipse cx="930.3" cy="460.41" fill="#ADD1B2" rx="11" ry="11" style="stroke:#181818;stroke-width:1.0;"/><path d="M934.4094,466.41 L926.6906,466.41 L926.6906,454.0194 L934.4094,454.0194 L934.4094,456.1756 L929.1438,456.1756 L929.1438,458.8475 L933.9094,458.8475 L933.9094,461.0037 L929.1438,461.0037 L929.1438,464.2537 L934.4094,464.2537 L934.4094,466.41 Z " fill="#000000"/><text fill="#000000" font-family="sans-serif" font-size="14" lengthAdjust="spacing" textLength="97" x="947.7" y="465.2567">ProductSpecs</text><line style="stroke:#181818;stroke-width:0.5;" x1="901" x2="1062" y1="476.41" y2="476.41"/><ellipse cx="911" cy="490.0584" fill="#000000" rx="3" ry="3" style="stroke:#000000;stroke-width:1.0;"/><text fill="#000000" font-family="sans-serif" font-size="14" lengthAdjust="spacing" textLength="119" x="920" y="493.4051">SpecID : int &#171;PK&#187;</text><ellipse cx="911" cy="506.3553" fill="#000000" rx="3" ry="3" style="stroke:#000000;stroke-width:1.0;"/><text fill="#000000" font-family="sans-serif" font-size="14" lengthAdjust="spacing" textLength="137" x="920" y="509.702">ProductID : int &#171;FK&#187;</text><line style="stroke:#181818;stroke-width:1.0;" x1="901" x2="1062" y1="517.0038" y2="517.0038"/><text fill="#000000" font-family="sans-serif" font-size="14" lengthAdjust="spacing" textLength="77" x="906" y="533.9989">Key : string</text><text fill="#000000" font-family="sans-serif" font-size="14" lengthAdjust="spacing" textLength="90" x="906" y="550.2957">Value : string</text></g><!--class BENCHMARKS--><g id="elem_BENCHMARKS"><rect codeLine="30" fill="#F1F1F1" height="113.1875" id="BENCHMARKS" rx="2.5" ry="2.5" style="stroke:#181818;stroke-width:0.5;" width="189" x="676" y="444.41"/><ellipse cx="722.75" cy="460.41" fill="#ADD1B2" rx="11" ry="11" style="stroke:#181818;stroke-width:1.0;"/><path d="M726.8594,466.41 L719.1406,466.41 L719.1406,454.0194 L726.8594,454.0194 L726.8594,456.1756 L721.5938,456.1756 L721.5938,458.8475 L726.3594,458.8475 L726.3594,461.0037 L721.5938,461.0037 L721.5938,464.2537 L726.8594,464.2537 L726.8594,466.41 Z " fill="#000000"/><text fill="#000000" font-family="sans-serif" font-size="14" lengthAdjust="spacing" textLength="87" x="743.25" y="465.2567">Benchmarks</text><line style="stroke:#181818;stroke-width:0.5;" x1="677" x2="864" y1="476.41" y2="476.41"/><ellipse cx="687" cy="490.0584" fill="#000000" rx="3" ry="3" style="stroke:#000000;stroke-width:1.0;"/><text fill="#000000" font-family="sans-serif" font-size="14" lengthAdjust="spacing" textLength="163" x="696" y="493.4051">BenchmarkID : int &#171;PK&#187;</text><ellipse cx="687" cy="506.3553" fill="#000000" rx="3" ry="3" style="stroke:#000000;stroke-width:1.0;"/><text fill="#000000" font-family="sans-serif" font-size="14" lengthAdjust="spacing" textLength="137" x="696" y="509.702">ProductID : int &#171;FK&#187;</text><line style="stroke:#181818;stroke-width:1.0;" x1="677" x2="864" y1="517.0038" y2="517.0038"/><text fill="#000000" font-family="sans-serif" font-size="14" lengthAdjust="spacing" textLength="126" x="682" y="533.9989">ScoreType : string</text><text fill="#000000" font-family="sans-serif" font-size="14" lengthAdjust="spacing" textLength="120" x="682" y="550.2957">ScoreValue : float</text></g><!--class CART--><g id="elem_CART"><rect codeLine="38" fill="#F1F1F1" height="113.1875" id="CART" rx="2.5" ry="2.5" style="stroke:#181818;stroke-width:0.5;" width="163" x="478" y="444.41"/><ellipse cx="541.25" cy="460.41" fill="#ADD1B2" rx="11" ry="11" style="stroke:#181818;stroke-width:1.0;"/><path d="M545.3594,466.41 L537.6406,466.41 L537.6406,454.0194 L545.3594,454.0194 L545.3594,456.1756 L540.0938,456.1756 L540.0938,458.8475 L544.8594,458.8475 L544.8594,461.0037 L540.0938,461.0037 L540.0938,464.2537 L545.3594,464.2537 L545.3594,466.41 Z " fill="#000000"/><text fill="#000000" font-family="sans-serif" font-size="14" lengthAdjust="spacing" textLength="28" x="561.75" y="465.2567">Cart</text><line style="stroke:#181818;stroke-width:0.5;" x1="479" x2="640" y1="476.41" y2="476.41"/><ellipse cx="489" cy="490.0584" fill="#000000" rx="3" ry="3" style="stroke:#000000;stroke-width:1.0;"/><text fill="#000000" font-family="sans-serif" font-size="14" lengthAdjust="spacing" textLength="112" x="498" y="493.4051">CartID : int &#171;PK&#187;</text><ellipse cx="489" cy="506.3553" fill="#000000" rx="3" ry="3" style="stroke:#000000;stroke-width:1.0;"/><text fill="#000000" font-family="sans-serif" font-size="14" lengthAdjust="spacing" textLength="115" x="498" y="509.702">UserID : int &#171;FK&#187;</text><ellipse cx="489" cy="522.6522" fill="#000000" rx="3" ry="3" style="stroke:#000000;stroke-width:1.0;"/><text fill="#000000" font-family="sans-serif" font-size="14" lengthAdjust="spacing" textLength="137" x="498" y="525.9989">ProductID : int &#171;FK&#187;</text><line style="stroke:#181818;stroke-width:1.0;" x1="479" x2="640" y1="533.3006" y2="533.3006"/><text fill="#000000" font-family="sans-serif" font-size="14" lengthAdjust="spacing" textLength="87" x="484" y="550.2957">Quantity : int</text></g><!--class ORDERS--><g id="elem_ORDERS"><rect codeLine="46" fill="#F1F1F1" height="113.1875" id="ORDERS" rx="2.5" ry="2.5" style="stroke:#181818;stroke-width:0.5;" width="158" x="292.5" y="229.78"/><ellipse cx="343.75" cy="245.78" fill="#ADD1B2" rx="11" ry="11" style="stroke:#181818;stroke-width:1.0;"/><path d="M347.8594,251.78 L340.1406,251.78 L340.1406,239.3894 L347.8594,239.3894 L347.8594,241.5456 L342.5938,241.5456 L342.5938,244.2175 L347.3594,244.2175 L347.3594,246.3737 L342.5938,246.3737 L342.5938,249.6237 L347.8594,249.6237 L347.8594,251.78 Z " fill="#000000"/><text fill="#000000" font-family="sans-serif" font-size="14" lengthAdjust="spacing" textLength="47" x="364.25" y="250.6267">Orders</text><line style="stroke:#181818;stroke-width:0.5;" x1="293.5" x2="449.5" y1="261.78" y2="261.78"/><ellipse cx="303.5" cy="275.4284" fill="#000000" rx="3" ry="3" style="stroke:#000000;stroke-width:1.0;"/><text fill="#000000" font-family="sans-serif" font-size="14" lengthAdjust="spacing" textLength="123" x="312.5" y="278.7751">OrderID : int &#171;PK&#187;</text><ellipse cx="303.5" cy="291.7253" fill="#000000" rx="3" ry="3" style="stroke:#000000;stroke-width:1.0;"/><text fill="#000000" font-family="sans-serif" font-size="14" lengthAdjust="spacing" textLength="115" x="312.5" y="295.072">UserID : int &#171;FK&#187;</text><line style="stroke:#181818;stroke-width:1.0;" x1="293.5" x2="449.5" y1="302.3738" y2="302.3738"/><text fill="#000000" font-family="sans-serif" font-size="14" lengthAdjust="spacing" textLength="146" x="298.5" y="319.3689">OrderDate : datetime</text><text fill="#000000" font-family="sans-serif" font-size="14" lengthAdjust="spacing" textLength="96" x="298.5" y="335.6657">Status : string</text></g><!--class ORDER_DETAILS--><g id="elem_ORDER_DETAILS"><rect codeLine="54" fill="#F1F1F1" height="129.4844" id="ORDER_DETAILS" rx="2.5" ry="2.5" style="stroke:#181818;stroke-width:0.5;" width="188" x="254.5" y="436.27"/><ellipse cx="301.25" cy="452.27" fill="#ADD1B2" rx="11" ry="11" style="stroke:#181818;stroke-width:1.0;"/><path d="M305.3594,458.27 L297.6406,458.27 L297.6406,445.8794 L305.3594,445.8794 L305.3594,448.0356 L300.0938,448.0356 L300.0938,450.7075 L304.8594,450.7075 L304.8594,452.8638 L300.0938,452.8638 L300.0938,456.1138 L305.3594,456.1138 L305.3594,458.27 Z " fill="#000000"/><text fill="#000000" font-family="sans-serif" font-size="14" lengthAdjust="spacing" textLength="86" x="321.75" y="457.1167">OrderDetails</text><line style="stroke:#181818;stroke-width:0.5;" x1="255.5" x2="441.5" y1="468.27" y2="468.27"/><ellipse cx="265.5" cy="481.9184" fill="#000000" rx="3" ry="3" style="stroke:#000000;stroke-width:1.0;"/><text fill="#000000" font-family="sans-serif" font-size="14" lengthAdjust="spacing" textLength="162" x="274.5" y="485.2651">OrderDetailID : int &#171;PK&#187;</text><ellipse cx="265.5" cy="498.2153" fill="#000000" rx="3" ry="3" style="stroke:#000000;stroke-width:1.0;"/><text fill="#000000" font-family="sans-serif" font-size="14" lengthAdjust="spacing" textLength="122" x="274.5" y="501.562">OrderID : int &#171;FK&#187;</text><ellipse cx="265.5" cy="514.5122" fill="#000000" rx="3" ry="3" style="stroke:#000000;stroke-width:1.0;"/><text fill="#000000" font-family="sans-serif" font-size="14" lengthAdjust="spacing" textLength="137" x="274.5" y="517.8589">ProductID : int &#171;FK&#187;</text><line style="stroke:#181818;stroke-width:1.0;" x1="255.5" x2="441.5" y1="525.1606" y2="525.1606"/><text fill="#000000" font-family="sans-serif" font-size="14" lengthAdjust="spacing" textLength="87" x="260.5" y="542.1557">Quantity : int</text><text fill="#000000" font-family="sans-serif" font-size="14" lengthAdjust="spacing" textLength="100" x="260.5" y="558.4526">Price : decimal</text></g><!--class BOTTLENECK_RULES--><g id="elem_BOTTLENECK_RULES"><rect codeLine="63" fill="#F1F1F1" height="113.1875" id="BOTTLENECK_RULES" rx="2.5" ry="2.5" style="stroke:#181818;stroke-width:0.5;" width="190" x="592.5" y="15.15"/><ellipse cx="627.3" cy="31.15" fill="#ADD1B2" rx="11" ry="11" style="stroke:#181818;stroke-width:1.0;"/><path d="M631.4094,37.15 L623.6906,37.15 L623.6906,24.7594 L631.4094,24.7594 L631.4094,26.9156 L626.1438,26.9156 L626.1438,29.5875 L630.9094,29.5875 L630.9094,31.7437 L626.1438,31.7437 L626.1438,34.9937 L631.4094,34.9937 L631.4094,37.15 Z " fill="#000000"/><text fill="#000000" font-family="sans-serif" font-size="14" lengthAdjust="spacing" textLength="114" x="645.7" y="35.9967">BottleneckRules</text><line style="stroke:#181818;stroke-width:0.5;" x1="593.5" x2="781.5" y1="47.15" y2="47.15"/><ellipse cx="603.5" cy="60.7984" fill="#000000" rx="3" ry="3" style="stroke:#000000;stroke-width:1.0;"/><text fill="#000000" font-family="sans-serif" font-size="14" lengthAdjust="spacing" textLength="115" x="612.5" y="64.1451">RuleID : int &#171;PK&#187;</text><line style="stroke:#181818;stroke-width:1.0;" x1="593.5" x2="781.5" y1="71.4469" y2="71.4469"/><text fill="#000000" font-family="sans-serif" font-size="14" lengthAdjust="spacing" textLength="177" x="598.5" y="88.442">ComponentTypeA : string</text><text fill="#000000" font-family="sans-serif" font-size="14" lengthAdjust="spacing" textLength="178" x="598.5" y="104.7389">ComponentTypeB : string</text><text fill="#000000" font-family="sans-serif" font-size="14" lengthAdjust="spacing" textLength="150" x="598.5" y="121.0357">ThresholdValue : float</text></g><!--class RECOMMENDATION_LOGS--><g id="elem_RECOMMENDATION_LOGS"><rect codeLine="71" fill="#F1F1F1" height="129.4844" id="RECOMMENDATION_LOGS" rx="2.5" ry="2.5" style="stroke:#181818;stroke-width:0.5;" width="251" x="7" y="221.63"/><ellipse cx="50.35" cy="237.63" fill="#ADD1B2" rx="11" ry="11" style="stroke:#181818;stroke-width:1.0;"/><path d="M54.4594,243.63 L46.7406,243.63 L46.7406,231.2394 L54.4594,231.2394 L54.4594,233.3956 L49.1938,233.3956 L49.1938,236.0675 L53.9594,236.0675 L53.9594,238.2238 L49.1938,238.2238 L49.1938,241.4738 L54.4594,241.4738 L54.4594,243.63 Z " fill="#000000"/><text fill="#000000" font-family="sans-serif" font-size="14" lengthAdjust="spacing" textLength="156" x="70.65" y="242.4767">RecommendationLogs</text><line style="stroke:#181818;stroke-width:0.5;" x1="8" x2="257" y1="253.63" y2="253.63"/><ellipse cx="18" cy="267.2784" fill="#000000" rx="3" ry="3" style="stroke:#000000;stroke-width:1.0;"/><text fill="#000000" font-family="sans-serif" font-size="14" lengthAdjust="spacing" textLength="109" x="27" y="270.6251">LogID : int &#171;PK&#187;</text><ellipse cx="18" cy="283.5753" fill="#000000" rx="3" ry="3" style="stroke:#000000;stroke-width:1.0;"/><text fill="#000000" font-family="sans-serif" font-size="14" lengthAdjust="spacing" textLength="115" x="27" y="286.922">UserID : int &#171;FK&#187;</text><line style="stroke:#181818;stroke-width:1.0;" x1="8" x2="257" y1="294.2238" y2="294.2238"/><text fill="#000000" font-family="sans-serif" font-size="14" lengthAdjust="spacing" textLength="193" x="13" y="311.2189">SelectedComponents : json</text><text fill="#000000" font-family="sans-serif" font-size="14" lengthAdjust="spacing" textLength="239" x="13" y="327.5157">RecommendedComponents : json</text><text fill="#000000" font-family="sans-serif" font-size="14" lengthAdjust="spacing" textLength="151" x="13" y="343.8126">Timestamp : datetime</text></g><!--link USERS to CART--><g id="link_USERS_CART"><path codeLine="80" d="M425.6245,143.4821 C441.9745,166.7121 454.64,187.18 467.5,213.48 C504.84,289.88 527.5327,367.4754 542.2827,426.5954 " fill="none" id="USERS-CART" style="stroke:#181818;stroke-width:1.0;"/><line style="stroke:#181818;stroke-width:1.0;" x1="420.0512" x2="426.5933" y1="142.5133" y2="137.9088"/><line style="stroke:#181818;stroke-width:1.0;" x1="421.7779" x2="428.32" y1="144.9666" y2="140.362"/><line style="stroke:#181818;stroke-width:1.0;" x1="425.6245" x2="421.02" y1="143.4821" y2="136.94"/><line style="stroke:#181818;stroke-width:1.0;" x1="544.7034" x2="552.4615" y1="436.2979" y2="442.6076"/><line style="stroke:#181818;stroke-width:1.0;" x1="544.7034" x2="540.8185" y1="436.2979" y2="445.5124"/><line style="stroke:#181818;stroke-width:1.0;" x1="544.7034" x2="546.64" y1="436.2979" y2="444.06"/><ellipse cx="543.251" cy="430.4764" fill="none" rx="4" ry="4" style="stroke:#181818;stroke-width:1.0;"/><text fill="#000000" font-family="sans-serif" font-size="13" lengthAdjust="spacing" textLength="23" x="523.74" y="290.9369">1..*</text></g><!--link USERS to ORDERS--><g id="link_USERS_ORDERS"><path codeLine="81" d="M371.5,144.83 C371.5,174.3 371.5,182.94 371.5,211.35 " fill="none" id="USERS-ORDERS" style="stroke:#181818;stroke-width:1.0;"/><line style="stroke:#181818;stroke-width:1.0;" x1="367.5" x2="375.5" y1="140.83" y2="140.83"/><line style="stroke:#181818;stroke-width:1.0;" x1="367.5" x2="375.5" y1="143.83" y2="143.83"/><line style="stroke:#181818;stroke-width:1.0;" x1="371.5" x2="371.5" y1="144.83" y2="136.83"/><line style="stroke:#181818;stroke-width:1.0;" x1="371.5" x2="377.5" y1="221.35" y2="229.35"/><line style="stroke:#181818;stroke-width:1.0;" x1="371.5" x2="365.5" y1="221.35" y2="229.35"/><line style="stroke:#181818;stroke-width:1.0;" x1="371.5" x2="371.5" y1="221.35" y2="229.35"/><ellipse cx="371.5" cy="215.35" fill="none" rx="4" ry="4" style="stroke:#181818;stroke-width:1.0;"/><text fill="#000000" font-family="sans-serif" font-size="13" lengthAdjust="spacing" textLength="23" x="372.5" y="179.5469">1..*</text></g><!--link USERS to RECOMMENDATION_LOGS--><g id="link_USERS_RECOMMENDATION_LOGS"><path codeLine="82" d="M293.4931,142.1476 C263.3931,168.9276 247.9204,182.6981 217.8304,209.4581 " fill="none" id="USERS-RECOMMENDATION_LOGS" style="stroke:#181818;stroke-width:1.0;"/><line style="stroke:#181818;stroke-width:1.0;" x1="293.8228" x2="299.1404" y1="136.5004" y2="142.4772"/><line style="stroke:#181818;stroke-width:1.0;" x1="291.5814" x2="296.8991" y1="138.4945" y2="144.4714"/><line style="stroke:#181818;stroke-width:1.0;" x1="293.4931" x2="299.47" y1="142.1476" y2="136.83"/><line style="stroke:#181818;stroke-width:1.0;" x1="210.358" x2="208.3673" y1="216.1036" y2="225.9035"/><line style="stroke:#181818;stroke-width:1.0;" x1="210.358" x2="200.3927" y1="216.1036" y2="216.9365"/><line style="stroke:#181818;stroke-width:1.0;" x1="210.358" x2="204.38" y1="216.1036" y2="221.42"/><ellipse cx="214.8414" cy="212.1163" fill="none" rx="4" ry="4" style="stroke:#181818;stroke-width:1.0;"/><text fill="#000000" font-family="sans-serif" font-size="13" lengthAdjust="spacing" textLength="23" x="260.17" y="179.5469">1..*</text></g><!--link PRODUCTS to PRODUCT_SPECS--><g id="link_PRODUCTS_PRODUCT_SPECS"><path codeLine="84" d="M784.3744,357.4397 C826.4144,387.8497 856.2176,409.4019 897.5476,439.2919 " fill="none" id="PRODUCTS-PRODUCT_SPECS" style="stroke:#181818;stroke-width:1.0;"/><line style="stroke:#181818;stroke-width:1.0;" x1="776.2719" x2="766.2734" y1="351.5788" y2="351.7515"/><line style="stroke:#181818;stroke-width:1.0;" x1="776.2719" x2="773.3066" y1="351.5788" y2="342.0285"/><line style="stroke:#181818;stroke-width:1.0;" x1="776.2719" x2="769.79" y1="351.5788" y2="346.89"/><ellipse cx="781.1334" cy="355.0953" fill="none" rx="4" ry="4" style="stroke:#181818;stroke-width:1.0;"/><line style="stroke:#181818;stroke-width:1.0;" x1="903.1328" x2="898.4447" y1="438.3947" y2="444.8772"/><line style="stroke:#181818;stroke-width:1.0;" x1="900.7019" x2="896.0138" y1="436.6367" y2="443.1191"/><line style="stroke:#181818;stroke-width:1.0;" x1="897.5476" x2="904.03" y1="439.2919" y2="443.98"/><text fill="#000000" font-family="sans-serif" font-size="13" lengthAdjust="spacing" textLength="23" x="844.32" y="402.3369">1..*</text></g><!--link PRODUCTS to BENCHMARKS--><g id="link_PRODUCTS_BENCHMARKS"><path codeLine="85" d="M722.2643,376.4282 C733.0243,403.9982 735.6617,410.7574 745.7417,436.5874 " fill="none" id="PRODUCTS-BENCHMARKS" style="stroke:#181818;stroke-width:1.0;"/><line style="stroke:#181818;stroke-width:1.0;" x1="718.6286" x2="710.1306" y1="367.1125" y2="361.8414"/><line style="stroke:#181818;stroke-width:1.0;" x1="718.6286" x2="721.3094" y1="367.1125" y2="357.4786"/><line style="stroke:#181818;stroke-width:1.0;" x1="718.6286" x2="715.72" y1="367.1125" y2="359.66"/><ellipse cx="720.81" cy="372.7019" fill="none" rx="4" ry="4" style="stroke:#181818;stroke-width:1.0;"/><line style="stroke:#181818;stroke-width:1.0;" x1="750.9221" x2="743.4695" y1="438.8595" y2="441.7679"/><line style="stroke:#181818;stroke-width:1.0;" x1="749.8315" x2="742.3789" y1="436.0648" y2="438.9731"/><line style="stroke:#181818;stroke-width:1.0;" x1="745.7417" x2="748.65" y1="436.5874" y2="444.04"/><text fill="#000000" font-family="sans-serif" font-size="13" lengthAdjust="spacing" textLength="23" x="732.49" y="402.3369">1..*</text></g><!--link PRODUCTS to ORDER_DETAILS--><g id="link_PRODUCTS_ORDER_DETAILS"><path codeLine="86" d="M589.7516,348.6849 C540.7616,379.4149 500.4769,404.6787 449.5469,436.6287 " fill="none" id="PRODUCTS-ORDER_DETAILS" style="stroke:#181818;stroke-width:1.0;"/><line style="stroke:#181818;stroke-width:1.0;" x1="598.2229" x2="601.8117" y1="343.3711" y2="334.0372"/><line style="stroke:#181818;stroke-width:1.0;" x1="598.2229" x2="608.1883" y1="343.3711" y2="344.2028"/><line style="stroke:#181818;stroke-width:1.0;" x1="598.2229" x2="605" y1="343.3711" y2="339.12"/><ellipse cx="593.1401" cy="346.5593" fill="none" rx="4" ry="4" style="stroke:#181818;stroke-width:1.0;"/><line style="stroke:#181818;stroke-width:1.0;" x1="448.2841" x2="444.0328" y1="442.1428" y2="435.3659"/><line style="stroke:#181818;stroke-width:1.0;" x1="450.8254" x2="446.5741" y1="440.5485" y2="433.7716"/><line style="stroke:#181818;stroke-width:1.0;" x1="449.5469" x2="442.77" y1="436.6287" y2="440.88"/><text fill="#000000" font-family="sans-serif" font-size="13" lengthAdjust="spacing" textLength="23" x="519" y="402.3369">1..*</text></g><!--link PRODUCTS to CART--><g id="link_PRODUCTS_CART"><path codeLine="87" d="M646.1047,375.5668 C638.1747,391.2668 637.5,391.51 628.5,406.27 C620.82,418.86 616.5996,425.4186 607.7796,437.6086 " fill="none" id="PRODUCTS-CART" style="stroke:#181818;stroke-width:1.0;"/><line style="stroke:#181818;stroke-width:1.0;" x1="650.6132" x2="648.8644" y1="366.6408" y2="356.7949"/><line style="stroke:#181818;stroke-width:1.0;" x1="650.6132" x2="659.5756" y1="366.6408" y2="362.2051"/><line style="stroke:#181818;stroke-width:1.0;" x1="650.6132" x2="654.22" y1="366.6408" y2="359.5"/><ellipse cx="647.9081" cy="371.9964" fill="none" rx="4" ry="4" style="stroke:#181818;stroke-width:1.0;"/><line style="stroke:#181818;stroke-width:1.0;" x1="608.6755" x2="602.1941" y1="443.1941" y2="438.5045"/><line style="stroke:#181818;stroke-width:1.0;" x1="610.434" x2="603.9527" y1="440.7636" y2="436.074"/><line style="stroke:#181818;stroke-width:1.0;" x1="607.7796" x2="603.09" y1="437.6086" y2="444.09"/><text fill="#000000" font-family="sans-serif" font-size="13" lengthAdjust="spacing" textLength="23" x="638.61" y="402.3369">1..*</text></g><!--link ORDERS to ORDER_DETAILS--><g id="link_ORDERS_ORDER_DETAILS"><path codeLine="89" d="M364.5984,351.1935 C361.5184,379.6235 360.5645,388.4543 357.3745,417.9643 " fill="none" id="ORDERS-ORDER_DETAILS" style="stroke:#181818;stroke-width:1.0;"/><line style="stroke:#181818;stroke-width:1.0;" x1="361.0524" x2="369.0059" y1="346.7859" y2="347.6476"/><line style="stroke:#181818;stroke-width:1.0;" x1="360.7293" x2="368.6828" y1="349.7685" y2="350.6301"/><line style="stroke:#181818;stroke-width:1.0;" x1="364.5984" x2="365.46" y1="351.1935" y2="343.24"/><line style="stroke:#181818;stroke-width:1.0;" x1="356.2998" x2="361.4052" y1="427.9063" y2="436.5048"/><line style="stroke:#181818;stroke-width:1.0;" x1="356.2998" x2="349.4748" y1="427.9063" y2="435.2152"/><line style="stroke:#181818;stroke-width:1.0;" x1="356.2998" x2="355.44" y1="427.9063" y2="435.86"/><ellipse cx="356.9446" cy="421.9411" fill="none" rx="4" ry="4" style="stroke:#181818;stroke-width:1.0;"/><text fill="#000000" font-family="sans-serif" font-size="13" lengthAdjust="spacing" textLength="23" x="361" y="402.3369">1..*</text></g><!--link BOTTLENECK_RULES to PRODUCTS--><g id="link_BOTTLENECK_RULES_PRODUCTS"><path codeLine="91" d="M687.5,146.61 C687.5,172.45 687.5,167.46 687.5,195.06 " fill="none" id="BOTTLENECK_RULES-PRODUCTS" style="stroke:#181818;stroke-width:1.0;"/><line style="stroke:#181818;stroke-width:1.0;" x1="687.5" x2="681.5" y1="136.61" y2="128.61"/><line style="stroke:#181818;stroke-width:1.0;" x1="687.5" x2="693.5" y1="136.61" y2="128.61"/><line style="stroke:#181818;stroke-width:1.0;" x1="687.5" x2="687.5" y1="136.61" y2="128.61"/><ellipse cx="687.5" cy="142.61" fill="none" rx="4" ry="4" style="stroke:#181818;stroke-width:1.0;"/><line style="stroke:#181818;stroke-width:1.0;" x1="687.5" x2="693.5" y1="205.06" y2="213.06"/><line style="stroke:#181818;stroke-width:1.0;" x1="687.5" x2="681.5" y1="205.06" y2="213.06"/><line style="stroke:#181818;stroke-width:1.0;" x1="687.5" x2="687.5" y1="205.06" y2="213.06"/><ellipse cx="687.5" cy="199.06" fill="none" rx="4" ry="4" style="stroke:#181818;stroke-width:1.0;"/><text fill="#000000" font-family="sans-serif" font-size="13" lengthAdjust="spacing" textLength="23" x="688.5" y="179.5469">0..*</text></g><!--SRC=[fPHDRwCm48Rl_0ehnqfKssjLLKg0RgEGm0BPFKOMp0Plm4QsqIfg-j_N1i9Ne5AxN91cNjlFU5wFE15QO8vpn26Mc1upS0c5NoIHANem3A2Io3DQx0LmiK1Oe7te125wCv3wxf2EhstqY0YLwEd9tpm_LndJh7uwJN4EIY0a9_HOHPqSasmOyh4GVnbFNh58Xvc0PRtbxnsIprbInhAcyWFFtbjH1zPaFs3RtN1PMCAHyVCmkkAO9YDQJcAzDe6Ov3YhOg5ayUb7YMkwwj09sh20U41y27t7wh1rVefvgg2NKK4R697_n5avVNShe76QOtwgMLREpdhTBeDD1z8glaeJnen3T2v6Tro5hs2_CuO7jsHXBYiYQnb4BOkEJcECxFVo6S3vNdaykRhT2-o-tQlCvr2QqwgLjZAOjetwIP93uniiIp7PfNeDIFLQUZG7sucMQtS4LSkcqSRK_tDDK_Rl6uj9cG65-1IK6JJkygB8TNQEjJa4UzVfmBNaWmTgiRnWLEsiNRGSFTL-RZNCHIa7aR8icRLP037BSw2g4OHHbnrhqC2nlEtMsTdBQEtj3gxtlMDLeY_rFOHC3LP8Mc3TwZ-2qNguNK7c196oYP0uB_gsKPNKK_XoCKtsLZ-MHxHukB-_MmnJZN-darFrjagZ7Qdlp3Glbz70QdLZMM-Mp6g6FfwL3UiocbhwbTtkOTouJM-czEtcIlfDI_y1]--></g></svg>
