<svg xmlns="http://www.w3.org/2000/svg" xmlns:xlink="http://www.w3.org/1999/xlink" contentStyleType="text/css" data-diagram-type="CLASS" height="647px" preserveAspectRatio="none" style="width:1965px;height:647px;background:#FFFFFF;" version="1.1" viewBox="0 0 1965 647" width="1965px" zoomAndPan="magnify"><defs/><g><!--class blooddonor--><g class="entity" data-entity="blooddonor" data-source-line="4" data-uid="ent0002" id="entity_blooddonor"><rect fill="#FFFFFF" height="190.6719" rx="2.5" ry="2.5" style="stroke:#000000;stroke-width:1;" width="213.332" x="12" y="12"/><ellipse cx="40.576" cy="26" fill="#FFFFFF" rx="9" ry="9" style="stroke:#000000;stroke-width:1;"/><path d="M44.6854,32 L36.9666,32 L36.9666,19.6094 L44.6854,19.6094 L44.6854,21.7656 L39.4197,21.7656 L39.4197,24.4375 L44.1854,24.4375 L44.1854,26.5938 L39.4197,26.5938 L39.4197,29.8438 L44.6854,29.8438 L44.6854,32 Z " fill="#000000"/><text fill="#000000" font-family="Verdana" font-size="14" lengthAdjust="spacing" textLength="150.7188" x="56.0373" y="30.8467">academy_blooddonor</text><line style="stroke:#000000;stroke-width:1;" x1="13" x2="224.332" y1="40" y2="40"/><ellipse cx="23" cy="53.6484" fill="#FFFFFF" rx="3" ry="3" style="stroke:#000000;stroke-width:1;"/><text fill="#000000" font-family="Verdana" font-size="14" lengthAdjust="spacing" textLength="66.3086" x="30" y="56.9951">id : bigint</text><line style="stroke:#000000;stroke-width:1;" x1="13" x2="224.332" y1="64.2969" y2="64.2969"/><text fill="#000000" font-family="Verdana" font-size="14" lengthAdjust="spacing" textLength="144.4912" x="18" y="81.292">name : varchar(200)</text><text fill="#000000" font-family="Verdana" font-size="14" lengthAdjust="spacing" textLength="64.4287" x="18" y="97.5889">st_id : int</text><text fill="#000000" font-family="Verdana" font-size="14" lengthAdjust="spacing" textLength="74.9082" x="18" y="113.8857">st_reg : int</text><text fill="#000000" font-family="Verdana" font-size="14" lengthAdjust="spacing" textLength="173.7354" x="18" y="130.1826">blood_group : varchar(5)</text><text fill="#000000" font-family="Verdana" font-size="14" lengthAdjust="spacing" textLength="201.332" x="18" y="146.4795">phone_number : varchar(11)</text><text fill="#000000" font-family="Verdana" font-size="14" lengthAdjust="spacing" textLength="143.3975" x="18" y="162.7764">email : varchar(100)</text><text fill="#000000" font-family="Verdana" font-size="14" lengthAdjust="spacing" textLength="143.623" x="18" y="179.0732">faculty : varchar(19)</text><text fill="#000000" font-family="Verdana" font-size="14" lengthAdjust="spacing" textLength="147.7041" x="18" y="195.3701">session : varchar(15)</text></g><!--class deanfaculty--><g class="entity" data-entity="deanfaculty" data-source-line="17" data-uid="ent0003" id="entity_deanfaculty"><rect fill="#FFFFFF" height="92.8906" rx="2.5" ry="2.5" style="stroke:#000000;stroke-width:1;" width="199.6123" x="259.86" y="60.89"/><ellipse cx="280.7978" cy="74.89" fill="#FFFFFF" rx="9" ry="9" style="stroke:#000000;stroke-width:1;"/><path d="M284.9072,80.89 L277.1885,80.89 L277.1885,68.4994 L284.9072,68.4994 L284.9072,70.6556 L279.6416,70.6556 L279.6416,73.3275 L284.4072,73.3275 L284.4072,75.4837 L279.6416,75.4837 L279.6416,78.7337 L284.9072,78.7337 L284.9072,80.89 Z " fill="#000000"/><text fill="#000000" font-family="Verdana" font-size="14" lengthAdjust="spacing" textLength="153.9727" x="294.5618" y="79.7367">academy_deanfaculty</text><line style="stroke:#000000;stroke-width:1;" x1="260.86" x2="458.4723" y1="88.89" y2="88.89"/><ellipse cx="270.86" cy="102.5384" fill="#FFFFFF" rx="3" ry="3" style="stroke:#000000;stroke-width:1;"/><text fill="#000000" font-family="Verdana" font-size="14" lengthAdjust="spacing" textLength="66.3086" x="277.86" y="105.8851">id : bigint</text><line style="stroke:#000000;stroke-width:1;" x1="260.86" x2="458.4723" y1="113.1869" y2="113.1869"/><text fill="#000000" font-family="Verdana" font-size="14" lengthAdjust="spacing" textLength="152.5303" x="265.86" y="130.182">faculty : varchar(200)</text><text fill="#000000" font-family="Verdana" font-size="14" lengthAdjust="spacing" textLength="187.6123" x="265.86" y="146.4789">department : varchar(200)</text></g><!--class deanoffice--><g class="entity" data-entity="deanoffice" data-source-line="24" data-uid="ent0004" id="entity_deanoffice"><rect fill="#FFFFFF" height="174.375" rx="2.5" ry="2.5" style="stroke:#000000;stroke-width:1;" width="213.332" x="742" y="20.15"/><ellipse cx="773.2153" cy="34.15" fill="#FFFFFF" rx="9" ry="9" style="stroke:#000000;stroke-width:1;"/><path d="M777.3247,40.15 L769.606,40.15 L769.606,27.7594 L777.3247,27.7594 L777.3247,29.9156 L772.0591,29.9156 L772.0591,32.5875 L776.8247,32.5875 L776.8247,34.7437 L772.0591,34.7437 L772.0591,37.9937 L777.3247,37.9937 L777.3247,40.15 Z " fill="#000000"/><text fill="#000000" font-family="Verdana" font-size="14" lengthAdjust="spacing" textLength="144.8535" x="789.2632" y="38.9967">academy_deanoffice</text><line style="stroke:#000000;stroke-width:1;" x1="743" x2="954.332" y1="48.15" y2="48.15"/><ellipse cx="753" cy="61.7984" fill="#FFFFFF" rx="3" ry="3" style="stroke:#000000;stroke-width:1;"/><text fill="#000000" font-family="Verdana" font-size="14" lengthAdjust="spacing" textLength="66.3086" x="760" y="65.1451">id : bigint</text><line style="stroke:#000000;stroke-width:1;" x1="743" x2="954.332" y1="72.4469" y2="72.4469"/><text fill="#000000" font-family="Verdana" font-size="14" lengthAdjust="spacing" textLength="144.4912" x="748" y="89.442">name : varchar(200)</text><text fill="#000000" font-family="Verdana" font-size="14" lengthAdjust="spacing" textLength="201.332" x="748" y="105.7389">phone_number : varchar(11)</text><text fill="#000000" font-family="Verdana" font-size="14" lengthAdjust="spacing" textLength="143.3975" x="748" y="122.0357">email : varchar(150)</text><text fill="#000000" font-family="Verdana" font-size="14" lengthAdjust="spacing" textLength="186.6279" x="748" y="138.3326">designation : varchar(200)</text><text fill="#000000" font-family="Verdana" font-size="14" lengthAdjust="spacing" textLength="152.5303" x="748" y="154.6295">faculty : varchar(200)</text><text fill="#000000" font-family="Verdana" font-size="14" lengthAdjust="spacing" textLength="82.3867" x="748" y="170.9264">priority : int</text><text fill="#000000" font-family="Verdana" font-size="14" lengthAdjust="spacing" textLength="156.1328" x="748" y="187.2232">department_id : bigint</text></g><!--class department--><g class="entity" data-entity="department" data-source-line="36" data-uid="ent0005" id="entity_department"><rect fill="#FFFFFF" height="92.8906" rx="2.5" ry="2.5" style="stroke:#000000;stroke-width:1;" width="199.6123" x="1244.86" y="312.26"/><ellipse cx="1265.7394" cy="326.26" fill="#FFFFFF" rx="9" ry="9" style="stroke:#000000;stroke-width:1;"/><path d="M1269.8488,332.26 L1262.13,332.26 L1262.13,319.8694 L1269.8488,319.8694 L1269.8488,322.0256 L1264.5831,322.0256 L1264.5831,324.6975 L1269.3488,324.6975 L1269.3488,326.8538 L1264.5831,326.8538 L1264.5831,330.1038 L1269.8488,330.1038 L1269.8488,332.26 Z " fill="#000000"/><text fill="#000000" font-family="Verdana" font-size="14" lengthAdjust="spacing" textLength="154.1025" x="1279.4904" y="331.1067">academy_department</text><line style="stroke:#000000;stroke-width:1;" x1="1245.86" x2="1443.4723" y1="340.26" y2="340.26"/><ellipse cx="1255.86" cy="353.9084" fill="#FFFFFF" rx="3" ry="3" style="stroke:#000000;stroke-width:1;"/><text fill="#000000" font-family="Verdana" font-size="14" lengthAdjust="spacing" textLength="66.3086" x="1262.86" y="357.2551">id : bigint</text><line style="stroke:#000000;stroke-width:1;" x1="1245.86" x2="1443.4723" y1="364.5569" y2="364.5569"/><text fill="#000000" font-family="Verdana" font-size="14" lengthAdjust="spacing" textLength="152.5303" x="1250.86" y="381.552">faculty : varchar(200)</text><text fill="#000000" font-family="Verdana" font-size="14" lengthAdjust="spacing" textLength="187.6123" x="1250.86" y="397.8489">department : varchar(200)</text></g><!--class staff--><g class="entity" data-entity="staff" data-source-line="43" data-uid="ent0006" id="entity_staff"><rect fill="#FFFFFF" height="174.375" rx="2.5" ry="2.5" style="stroke:#000000;stroke-width:1;" width="213.332" x="990" y="20.15"/><ellipse cx="1041.667" cy="34.15" fill="#FFFFFF" rx="9" ry="9" style="stroke:#000000;stroke-width:1;"/><path d="M1045.7764,40.15 L1038.0576,40.15 L1038.0576,27.7594 L1045.7764,27.7594 L1045.7764,29.9156 L1040.5107,29.9156 L1040.5107,32.5875 L1045.2764,32.5875 L1045.2764,34.7437 L1040.5107,34.7437 L1040.5107,37.9937 L1045.7764,37.9937 L1045.7764,40.15 Z " fill="#000000"/><text fill="#000000" font-family="Verdana" font-size="14" lengthAdjust="spacing" textLength="102.498" x="1059.167" y="38.9967">academy_staff</text><line style="stroke:#000000;stroke-width:1;" x1="991" x2="1202.332" y1="48.15" y2="48.15"/><ellipse cx="1001" cy="61.7984" fill="#FFFFFF" rx="3" ry="3" style="stroke:#000000;stroke-width:1;"/><text fill="#000000" font-family="Verdana" font-size="14" lengthAdjust="spacing" textLength="66.3086" x="1008" y="65.1451">id : bigint</text><line style="stroke:#000000;stroke-width:1;" x1="991" x2="1202.332" y1="72.4469" y2="72.4469"/><text fill="#000000" font-family="Verdana" font-size="14" lengthAdjust="spacing" textLength="144.4912" x="996" y="89.442">name : varchar(200)</text><text fill="#000000" font-family="Verdana" font-size="14" lengthAdjust="spacing" textLength="201.332" x="996" y="105.7389">phone_number : varchar(11)</text><text fill="#000000" font-family="Verdana" font-size="14" lengthAdjust="spacing" textLength="143.3975" x="996" y="122.0357">email : varchar(150)</text><text fill="#000000" font-family="Verdana" font-size="14" lengthAdjust="spacing" textLength="186.6279" x="996" y="138.3326">designation : varchar(200)</text><text fill="#000000" font-family="Verdana" font-size="14" lengthAdjust="spacing" textLength="152.5303" x="996" y="154.6295">faculty : varchar(200)</text><text fill="#000000" font-family="Verdana" font-size="14" lengthAdjust="spacing" textLength="82.3867" x="996" y="170.9264">priority : int</text><text fill="#000000" font-family="Verdana" font-size="14" lengthAdjust="spacing" textLength="156.1328" x="996" y="187.2232">department_id : bigint</text></g><!--class staffdepartment--><g class="entity" data-entity="staffdepartment" data-source-line="55" data-uid="ent0007" id="entity_staffdepartment"><rect fill="#FFFFFF" height="92.8906" rx="2.5" ry="2.5" style="stroke:#000000;stroke-width:1;" width="213.3223" x="494" y="60.89"/><ellipse cx="507" cy="74.89" fill="#FFFFFF" rx="9" ry="9" style="stroke:#000000;stroke-width:1;"/><path d="M511.1094,80.89 L503.3906,80.89 L503.3906,68.4994 L511.1094,68.4994 L511.1094,70.6556 L505.8438,70.6556 L505.8438,73.3275 L510.6094,73.3275 L510.6094,75.4837 L505.8438,75.4837 L505.8438,78.7337 L511.1094,78.7337 L511.1094,80.89 Z " fill="#000000"/><text fill="#000000" font-family="Verdana" font-size="14" lengthAdjust="spacing" textLength="185.3223" x="519" y="79.7367">academy_staffdepartment</text><line style="stroke:#000000;stroke-width:1;" x1="495" x2="706.3223" y1="88.89" y2="88.89"/><ellipse cx="505" cy="102.5384" fill="#FFFFFF" rx="3" ry="3" style="stroke:#000000;stroke-width:1;"/><text fill="#000000" font-family="Verdana" font-size="14" lengthAdjust="spacing" textLength="66.3086" x="512" y="105.8851">id : bigint</text><line style="stroke:#000000;stroke-width:1;" x1="495" x2="706.3223" y1="113.1869" y2="113.1869"/><text fill="#000000" font-family="Verdana" font-size="14" lengthAdjust="spacing" textLength="152.5303" x="500" y="130.182">faculty : varchar(200)</text><text fill="#000000" font-family="Verdana" font-size="14" lengthAdjust="spacing" textLength="187.6123" x="500" y="146.4789">department : varchar(200)</text></g><!--class studentcr--><g class="entity" data-entity="studentcr" data-source-line="62" data-uid="ent0008" id="entity_studentcr"><rect fill="#FFFFFF" height="158.0781" rx="2.5" ry="2.5" style="stroke:#000000;stroke-width:1;" width="213.332" x="12" y="279.67"/><ellipse cx="46.1869" cy="293.67" fill="#FFFFFF" rx="9" ry="9" style="stroke:#000000;stroke-width:1;"/><path d="M50.2963,299.67 L42.5775,299.67 L42.5775,287.2794 L50.2963,287.2794 L50.2963,289.4356 L45.0307,289.4356 L45.0307,292.1075 L49.7963,292.1075 L49.7963,294.2637 L45.0307,294.2637 L45.0307,297.5137 L50.2963,297.5137 L50.2963,299.67 Z " fill="#000000"/><text fill="#000000" font-family="Verdana" font-size="14" lengthAdjust="spacing" textLength="138.25" x="62.8951" y="298.5167">academy_studentcr</text><line style="stroke:#000000;stroke-width:1;" x1="13" x2="224.332" y1="307.67" y2="307.67"/><ellipse cx="23" cy="321.3184" fill="#FFFFFF" rx="3" ry="3" style="stroke:#000000;stroke-width:1;"/><text fill="#000000" font-family="Verdana" font-size="14" lengthAdjust="spacing" textLength="66.3086" x="30" y="324.6651">id : bigint</text><line style="stroke:#000000;stroke-width:1;" x1="13" x2="224.332" y1="331.9669" y2="331.9669"/><text fill="#000000" font-family="Verdana" font-size="14" lengthAdjust="spacing" textLength="144.4912" x="18" y="348.962">name : varchar(200)</text><text fill="#000000" font-family="Verdana" font-size="14" lengthAdjust="spacing" textLength="201.332" x="18" y="365.2589">phone_number : varchar(11)</text><text fill="#000000" font-family="Verdana" font-size="14" lengthAdjust="spacing" textLength="143.3975" x="18" y="381.5557">email : varchar(150)</text><text fill="#000000" font-family="Verdana" font-size="14" lengthAdjust="spacing" textLength="152.5303" x="18" y="397.8526">faculty : varchar(200)</text><text fill="#000000" font-family="Verdana" font-size="14" lengthAdjust="spacing" textLength="170.0986" x="18" y="414.1495">semester : varchar(200)</text><text fill="#000000" font-family="Verdana" font-size="14" lengthAdjust="spacing" textLength="82.3867" x="18" y="430.4464">priority : int</text></g><!--class teacher--><g class="entity" data-entity="teacher" data-source-line="73" data-uid="ent0009" id="entity_teacher"><rect fill="#FFFFFF" height="190.6719" rx="2.5" ry="2.5" style="stroke:#000000;stroke-width:1;" width="213.332" x="1238" y="12"/><ellipse cx="1278.4663" cy="26" fill="#FFFFFF" rx="9" ry="9" style="stroke:#000000;stroke-width:1;"/><path d="M1282.5757,32 L1274.8569,32 L1274.8569,19.6094 L1282.5757,19.6094 L1282.5757,21.7656 L1277.3101,21.7656 L1277.3101,24.4375 L1282.0757,24.4375 L1282.0757,26.5938 L1277.3101,26.5938 L1277.3101,29.8438 L1282.5757,29.8438 L1282.5757,32 Z " fill="#000000"/><text fill="#000000" font-family="Verdana" font-size="14" lengthAdjust="spacing" textLength="124.8994" x="1295.9663" y="30.8467">academy_teacher</text><line style="stroke:#000000;stroke-width:1;" x1="1239" x2="1450.332" y1="40" y2="40"/><ellipse cx="1249" cy="53.6484" fill="#FFFFFF" rx="3" ry="3" style="stroke:#000000;stroke-width:1;"/><text fill="#000000" font-family="Verdana" font-size="14" lengthAdjust="spacing" textLength="66.3086" x="1256" y="56.9951">id : bigint</text><line style="stroke:#000000;stroke-width:1;" x1="1239" x2="1450.332" y1="64.2969" y2="64.2969"/><text fill="#000000" font-family="Verdana" font-size="14" lengthAdjust="spacing" textLength="144.4912" x="1244" y="81.292">name : varchar(200)</text><text fill="#000000" font-family="Verdana" font-size="14" lengthAdjust="spacing" textLength="201.332" x="1244" y="97.5889">phone_number : varchar(11)</text><text fill="#000000" font-family="Verdana" font-size="14" lengthAdjust="spacing" textLength="176.791" x="1244" y="113.8857">profile_pic : varchar(100)</text><text fill="#000000" font-family="Verdana" font-size="14" lengthAdjust="spacing" textLength="143.3975" x="1244" y="130.1826">email : varchar(150)</text><text fill="#000000" font-family="Verdana" font-size="14" lengthAdjust="spacing" textLength="186.6279" x="1244" y="146.4795">designation : varchar(200)</text><text fill="#000000" font-family="Verdana" font-size="14" lengthAdjust="spacing" textLength="199.2334" x="1244" y="162.7764">faculty_name : varchar(200)</text><text fill="#000000" font-family="Verdana" font-size="14" lengthAdjust="spacing" textLength="82.3867" x="1244" y="179.0732">priority : int</text><text fill="#000000" font-family="Verdana" font-size="14" lengthAdjust="spacing" textLength="156.1328" x="1244" y="195.3701">department_id : bigint</text></g><!--class administration--><g class="entity" data-entity="administration" data-source-line="86" data-uid="ent0010" id="entity_administration"><rect fill="#FFFFFF" height="190.6719" rx="2.5" ry="2.5" style="stroke:#000000;stroke-width:1;" width="238.3828" x="1486.47" y="12"/><ellipse cx="1499.47" cy="26" fill="#FFFFFF" rx="9" ry="9" style="stroke:#000000;stroke-width:1;"/><path d="M1503.5794,32 L1495.8606,32 L1495.8606,19.6094 L1503.5794,19.6094 L1503.5794,21.7656 L1498.3138,21.7656 L1498.3138,24.4375 L1503.0794,24.4375 L1503.0794,26.5938 L1498.3138,26.5938 L1498.3138,29.8438 L1503.5794,29.8438 L1503.5794,32 Z " fill="#000000"/><text fill="#000000" font-family="Verdana" font-size="14" lengthAdjust="spacing" textLength="210.3828" x="1511.47" y="30.8467">administration_administration</text><line style="stroke:#000000;stroke-width:1;" x1="1487.47" x2="1723.8528" y1="40" y2="40"/><ellipse cx="1497.47" cy="53.6484" fill="#FFFFFF" rx="3" ry="3" style="stroke:#000000;stroke-width:1;"/><text fill="#000000" font-family="Verdana" font-size="14" lengthAdjust="spacing" textLength="66.3086" x="1504.47" y="56.9951">id : bigint</text><line style="stroke:#000000;stroke-width:1;" x1="1487.47" x2="1723.8528" y1="64.2969" y2="64.2969"/><text fill="#000000" font-family="Verdana" font-size="14" lengthAdjust="spacing" textLength="144.4912" x="1492.47" y="81.292">name : varchar(200)</text><text fill="#000000" font-family="Verdana" font-size="14" lengthAdjust="spacing" textLength="201.332" x="1492.47" y="97.5889">phone_number : varchar(11)</text><text fill="#000000" font-family="Verdana" font-size="14" lengthAdjust="spacing" textLength="143.3975" x="1492.47" y="113.8857">email : varchar(150)</text><text fill="#000000" font-family="Verdana" font-size="14" lengthAdjust="spacing" textLength="186.6279" x="1492.47" y="130.1826">designation : varchar(200)</text><text fill="#000000" font-family="Verdana" font-size="14" lengthAdjust="spacing" textLength="199.2334" x="1492.47" y="146.4795">faculty_name : varchar(200)</text><text fill="#000000" font-family="Verdana" font-size="14" lengthAdjust="spacing" textLength="82.3867" x="1492.47" y="162.7764">priority : int</text><text fill="#000000" font-family="Verdana" font-size="14" lengthAdjust="spacing" textLength="156.1328" x="1492.47" y="179.0732">department_id : bigint</text><text fill="#000000" font-family="Verdana" font-size="14" lengthAdjust="spacing" textLength="176.791" x="1492.47" y="195.3701">profile_pic : varchar(100)</text></g><!--class administrationdepartment--><g class="entity" data-entity="administrationdepartment" data-source-line="99" data-uid="ent0011" id="entity_administrationdepartment"><rect fill="#FFFFFF" height="92.8906" rx="2.5" ry="2.5" style="stroke:#000000;stroke-width:1;" width="321.207" x="260.06" y="312.26"/><ellipse cx="273.06" cy="326.26" fill="#FFFFFF" rx="9" ry="9" style="stroke:#000000;stroke-width:1;"/><path d="M277.1694,332.26 L269.4506,332.26 L269.4506,319.8694 L277.1694,319.8694 L277.1694,322.0256 L271.9038,322.0256 L271.9038,324.6975 L276.6694,324.6975 L276.6694,326.8538 L271.9038,326.8538 L271.9038,330.1038 L277.1694,330.1038 L277.1694,332.26 Z " fill="#000000"/><text fill="#000000" font-family="Verdana" font-size="14" lengthAdjust="spacing" textLength="293.207" x="285.06" y="331.1067">administration_administrationdepartment</text><line style="stroke:#000000;stroke-width:1;" x1="261.06" x2="580.267" y1="340.26" y2="340.26"/><ellipse cx="271.06" cy="353.9084" fill="#FFFFFF" rx="3" ry="3" style="stroke:#000000;stroke-width:1;"/><text fill="#000000" font-family="Verdana" font-size="14" lengthAdjust="spacing" textLength="66.3086" x="278.06" y="357.2551">id : bigint</text><line style="stroke:#000000;stroke-width:1;" x1="261.06" x2="580.267" y1="364.5569" y2="364.5569"/><text fill="#000000" font-family="Verdana" font-size="14" lengthAdjust="spacing" textLength="152.5303" x="266.06" y="381.552">faculty : varchar(200)</text><text fill="#000000" font-family="Verdana" font-size="14" lengthAdjust="spacing" textLength="187.6123" x="266.06" y="397.8489">department : varchar(200)</text></g><!--class servicedepartment--><g class="entity" data-entity="servicedepartment" data-source-line="106" data-uid="ent0012" id="entity_servicedepartment"><rect fill="#FFFFFF" height="92.8906" rx="2.5" ry="2.5" style="stroke:#000000;stroke-width:1;" width="269.6641" x="615.83" y="312.26"/><ellipse cx="628.83" cy="326.26" fill="#FFFFFF" rx="9" ry="9" style="stroke:#000000;stroke-width:1;"/><path d="M632.9394,332.26 L625.2206,332.26 L625.2206,319.8694 L632.9394,319.8694 L632.9394,322.0256 L627.6738,322.0256 L627.6738,324.6975 L632.4394,324.6975 L632.4394,326.8538 L627.6738,326.8538 L627.6738,330.1038 L632.9394,330.1038 L632.9394,332.26 Z " fill="#000000"/><text fill="#000000" font-family="Verdana" font-size="14" lengthAdjust="spacing" textLength="241.6641" x="640.83" y="331.1067">administration_servicedepartment</text><line style="stroke:#000000;stroke-width:1;" x1="616.83" x2="884.4941" y1="340.26" y2="340.26"/><ellipse cx="626.83" cy="353.9084" fill="#FFFFFF" rx="3" ry="3" style="stroke:#000000;stroke-width:1;"/><text fill="#000000" font-family="Verdana" font-size="14" lengthAdjust="spacing" textLength="66.3086" x="633.83" y="357.2551">id : bigint</text><line style="stroke:#000000;stroke-width:1;" x1="616.83" x2="884.4941" y1="364.5569" y2="364.5569"/><text fill="#000000" font-family="Verdana" font-size="14" lengthAdjust="spacing" textLength="199.2334" x="621.83" y="381.552">faculty_name : varchar(200)</text><text fill="#000000" font-family="Verdana" font-size="14" lengthAdjust="spacing" textLength="187.6123" x="621.83" y="397.8489">department : varchar(200)</text></g><!--class services--><g class="entity" data-entity="services" data-source-line="113" data-uid="ent0013" id="entity_services"><rect fill="#FFFFFF" height="158.0781" rx="2.5" ry="2.5" style="stroke:#000000;stroke-width:1;" width="198.6279" x="1760.35" y="28.3"/><ellipse cx="1775.3724" cy="42.3" fill="#FFFFFF" rx="9" ry="9" style="stroke:#000000;stroke-width:1;"/><path d="M1779.4817,48.3 L1771.763,48.3 L1771.763,35.9094 L1779.4817,35.9094 L1779.4817,38.0656 L1774.2161,38.0656 L1774.2161,40.7375 L1778.9817,40.7375 L1778.9817,42.8937 L1774.2161,42.8937 L1774.2161,46.1437 L1779.4817,46.1437 L1779.4817,48.3 Z " fill="#000000"/><text fill="#000000" font-family="Verdana" font-size="14" lengthAdjust="spacing" textLength="166.1338" x="1787.8218" y="47.1467">administration_services</text><line style="stroke:#000000;stroke-width:1;" x1="1761.35" x2="1957.9779" y1="56.3" y2="56.3"/><ellipse cx="1771.35" cy="69.9484" fill="#FFFFFF" rx="3" ry="3" style="stroke:#000000;stroke-width:1;"/><text fill="#000000" font-family="Verdana" font-size="14" lengthAdjust="spacing" textLength="66.3086" x="1778.35" y="73.2951">id : bigint</text><line style="stroke:#000000;stroke-width:1;" x1="1761.35" x2="1957.9779" y1="80.5969" y2="80.5969"/><text fill="#000000" font-family="Verdana" font-size="14" lengthAdjust="spacing" textLength="144.4912" x="1766.35" y="97.592">name : varchar(200)</text><text fill="#000000" font-family="Verdana" font-size="14" lengthAdjust="spacing" textLength="139.6924" x="1766.35" y="113.8889">phone : varchar(20)</text><text fill="#000000" font-family="Verdana" font-size="14" lengthAdjust="spacing" textLength="186.6279" x="1766.35" y="130.1857">designation : varchar(200)</text><text fill="#000000" font-family="Verdana" font-size="14" lengthAdjust="spacing" textLength="143.3975" x="1766.35" y="146.4826">email : varchar(254)</text><text fill="#000000" font-family="Verdana" font-size="14" lengthAdjust="spacing" textLength="82.3867" x="1766.35" y="162.7795">priority : int</text><text fill="#000000" font-family="Verdana" font-size="14" lengthAdjust="spacing" textLength="156.1328" x="1766.35" y="179.0764">department_id : bigint</text></g><!--class course--><g class="entity" data-entity="course" data-source-line="124" data-uid="ent0014" id="entity_course"><rect fill="#FFFFFF" height="141.7813" rx="2.5" ry="2.5" style="stroke:#000000;stroke-width:1;" width="204.3496" x="16.49" y="498.75"/><ellipse cx="64.616" cy="512.75" fill="#FFFFFF" rx="9" ry="9" style="stroke:#000000;stroke-width:1;"/><path d="M68.7254,518.75 L61.0066,518.75 L61.0066,506.3594 L68.7254,506.3594 L68.7254,508.5156 L63.4597,508.5156 L63.4597,511.1875 L68.2254,511.1875 L68.2254,513.3438 L63.4597,513.3438 L63.4597,516.5938 L68.7254,516.5938 L68.7254,518.75 Z " fill="#000000"/><text fill="#000000" font-family="Verdana" font-size="14" lengthAdjust="spacing" textLength="100.5977" x="82.116" y="517.5967">course_course</text><line style="stroke:#000000;stroke-width:1;" x1="17.49" x2="219.8396" y1="526.75" y2="526.75"/><ellipse cx="27.49" cy="540.3984" fill="#FFFFFF" rx="3" ry="3" style="stroke:#000000;stroke-width:1;"/><text fill="#000000" font-family="Verdana" font-size="14" lengthAdjust="spacing" textLength="66.3086" x="34.49" y="543.7451">id : bigint</text><line style="stroke:#000000;stroke-width:1;" x1="17.49" x2="219.8396" y1="551.0469" y2="551.0469"/><text fill="#000000" font-family="Verdana" font-size="14" lengthAdjust="spacing" textLength="185.958" x="22.49" y="568.042">course_title : varchar(200)</text><text fill="#000000" font-family="Verdana" font-size="14" lengthAdjust="spacing" textLength="192.3496" x="22.49" y="584.3389">course_code : varchar(200)</text><text fill="#000000" font-family="Verdana" font-size="14" lengthAdjust="spacing" textLength="181.3984" x="22.49" y="600.6357">credit_hour : decimal(5,2)</text><text fill="#000000" font-family="Verdana" font-size="14" lengthAdjust="spacing" textLength="152.5303" x="22.49" y="616.9326">faculty : varchar(200)</text><text fill="#000000" font-family="Verdana" font-size="14" lengthAdjust="spacing" textLength="170.0986" x="22.49" y="633.2295">semester : varchar(200)</text></g><!--link deanoffice to department--><g class="link" data-entity-1="deanoffice" data-entity-2="department" data-source-line="136" data-uid="lnk15" id="link_deanoffice_department"><path codeLine="136" d="M970.8882,202.0728 C976.5282,205.6928 967.04,199.43 972.67,202.67 C1060.43,253.22 1160.3468,293.4594 1237.1668,321.2394" fill="none" id="deanoffice-department" style="stroke:#000000;stroke-width:1;"/><line style="stroke:#000000;stroke-width:1;" x1="962.4725" x2="952.4991" y1="196.6712" y2="197.3994"/><line style="stroke:#000000;stroke-width:1;" x1="962.4725" x2="958.9809" y1="196.6712" y2="187.3006"/><line style="stroke:#000000;stroke-width:1;" x1="962.4725" x2="955.74" y1="196.6712" y2="192.35"/><ellipse cx="967.5219" cy="199.9122" fill="none" rx="4" ry="4" style="stroke:#000000;stroke-width:1;"/><line style="stroke:#000000;stroke-width:1;" x1="1242.2887" x2="1239.5681" y1="318.8381" y2="326.3613"/><line style="stroke:#000000;stroke-width:1;" x1="1239.4675" x2="1236.7469" y1="317.8179" y2="325.3411"/><line style="stroke:#000000;stroke-width:1;" x1="1237.1668" x2="1244.69" y1="321.2394" y2="323.96"/><text fill="#000000" font-family="Verdana" font-size="13" lengthAdjust="spacing" textLength="95.272" x="1062.67" y="245.7369">department_id</text></g><!--link staff to department--><g class="link" data-entity-1="staff" data-entity-2="department" data-source-line="137" data-uid="lnk16" id="link_staff_department"><path codeLine="137" d="M1195.4022,207.6135 C1234.5722,247.0035 1260.9979,273.5884 1293.5279,306.2884" fill="none" id="staff-department" style="stroke:#000000;stroke-width:1;"/><line style="stroke:#000000;stroke-width:1;" x1="1188.351" x2="1178.4555" y1="200.5227" y2="199.0807"/><line style="stroke:#000000;stroke-width:1;" x1="1188.351" x2="1186.9645" y1="200.5227" y2="190.6193"/><line style="stroke:#000000;stroke-width:1;" x1="1188.351" x2="1182.71" y1="200.5227" y2="194.85"/><ellipse cx="1192.5817" cy="204.7772" fill="none" rx="4" ry="4" style="stroke:#000000;stroke-width:1;"/><line style="stroke:#000000;stroke-width:1;" x1="1299.1847" x2="1293.5132" y1="306.3032" y2="311.9453"/><line style="stroke:#000000;stroke-width:1;" x1="1297.069" x2="1291.3974" y1="304.1763" y2="309.8184"/><line style="stroke:#000000;stroke-width:1;" x1="1293.5279" x2="1299.17" y1="306.2884" y2="311.96"/><text fill="#000000" font-family="Verdana" font-size="13" lengthAdjust="spacing" textLength="95.272" x="1236.67" y="245.7369">department_id</text></g><!--link teacher to department--><g class="link" data-entity-1="teacher" data-entity-2="department" data-source-line="138" data-uid="lnk17" id="link_teacher_department"><path codeLine="138" d="M1344.67,220.97 C1344.67,258.31 1344.67,273.47 1344.67,303.95" fill="none" id="teacher-department" style="stroke:#000000;stroke-width:1;"/><line style="stroke:#000000;stroke-width:1;" x1="1344.67" x2="1338.67" y1="210.97" y2="202.97"/><line style="stroke:#000000;stroke-width:1;" x1="1344.67" x2="1350.67" y1="210.97" y2="202.97"/><line style="stroke:#000000;stroke-width:1;" x1="1344.67" x2="1344.67" y1="210.97" y2="202.97"/><ellipse cx="1344.67" cy="216.97" fill="none" rx="4" ry="4" style="stroke:#000000;stroke-width:1;"/><line style="stroke:#000000;stroke-width:1;" x1="1348.67" x2="1340.67" y1="307.95" y2="307.95"/><line style="stroke:#000000;stroke-width:1;" x1="1348.67" x2="1340.67" y1="304.95" y2="304.95"/><line style="stroke:#000000;stroke-width:1;" x1="1344.67" x2="1344.67" y1="303.95" y2="311.95"/><text fill="#000000" font-family="Verdana" font-size="13" lengthAdjust="spacing" textLength="95.272" x="1345.67" y="245.7369">department_id</text></g><!--link administration to department--><g class="link" data-entity-1="administration" data-entity-2="department" data-source-line="139" data-uid="lnk18" id="link_administration_department"><path codeLine="139" d="M1493.6057,215.4049 C1454.5257,252.7449 1430.2441,275.9433 1398.3441,306.4233" fill="none" id="administration-department" style="stroke:#000000;stroke-width:1;"/><line style="stroke:#000000;stroke-width:1;" x1="1500.8358" x2="1502.475" y1="208.4966" y2="198.6319"/><line style="stroke:#000000;stroke-width:1;" x1="1500.8358" x2="1510.765" y1="208.4966" y2="207.3081"/><line style="stroke:#000000;stroke-width:1;" x1="1500.8358" x2="1506.62" y1="208.4966" y2="202.97"/><ellipse cx="1496.4977" cy="212.6416" fill="none" rx="4" ry="4" style="stroke:#000000;stroke-width:1;"/><line style="stroke:#000000;stroke-width:1;" x1="1398.2154" x2="1392.6887" y1="312.0787" y2="306.2946"/><line style="stroke:#000000;stroke-width:1;" x1="1400.3844" x2="1394.8578" y1="310.0062" y2="304.2221"/><line style="stroke:#000000;stroke-width:1;" x1="1398.3441" x2="1392.56" y1="306.4233" y2="311.95"/><text fill="#000000" font-family="Verdana" font-size="13" lengthAdjust="spacing" textLength="95.272" x="1476.67" y="245.7369">department_id</text></g><!--link services to department--><g class="link" data-entity-1="services" data-entity-2="department" data-source-line="140" data-uid="lnk19" id="link_services_department"><path codeLine="140" d="M1752.8493,196.9728 C1744.6193,202.6928 1751.02,197.83 1742.67,202.67 C1646.9,258.14 1535.137,299.1844 1452.227,325.8044" fill="none" id="services-department" style="stroke:#000000;stroke-width:1;"/><line style="stroke:#000000;stroke-width:1;" x1="1761.0608" x2="1764.2057" y1="191.2657" y2="181.7731"/><line style="stroke:#000000;stroke-width:1;" x1="1761.0608" x2="1771.0543" y1="191.2657" y2="191.6269"/><line style="stroke:#000000;stroke-width:1;" x1="1761.0608" x2="1767.63" y1="191.2657" y2="186.7"/><ellipse cx="1756.1339" cy="194.69" fill="none" rx="4" ry="4" style="stroke:#000000;stroke-width:1;"/><line style="stroke:#000000;stroke-width:1;" x1="1449.6413" x2="1447.1957" y1="330.8357" y2="323.2187"/><line style="stroke:#000000;stroke-width:1;" x1="1452.4977" x2="1450.0521" y1="329.9186" y2="322.3016"/><line style="stroke:#000000;stroke-width:1;" x1="1452.227" x2="1444.61" y1="325.8044" y2="328.25"/><text fill="#000000" font-family="Verdana" font-size="13" lengthAdjust="spacing" textLength="95.272" x="1682.67" y="245.7369">department_id</text></g><!--SRC=[tLRDRjim3BxxARHScWxBq0RBOGLowA4lq1SG58cE2SYI8Se5YZRlNaMsKzknLpTPYc6NMFmHoUyBHUcRpo07LcY19acks7gzPW_6eqUWlP30NdXcCo65WloPRxIrIbbZtOm9OkyYUqaO-uwAtR4DRj7u82uMuSU8aE2EFGadC-7covkRww0bpwDlvHWa1zk36AFohRDbqTgvskyhCck0cpBVW6lPRc_tHiW5whQsofKAMUe0ecNu7Mi08hIchGyvTiaHQ0N2r44YwfOy2liuQOrSGI6SpqEElcqaiqrJb718N8cVfFjpjAtgGWctHlWkHSinJfjC3gt3QAcgUiVBs-KEWcqyQx07eYvBCdcHfZ5bNFsFr4PWFNvxkekJNAgWawxENKjVGFPe_HH67_bEe66c1-1u43A32aoz_fjG2cTJrC0BbCVpx8ocuYErdD1PAaU3v5rCoBjYfAMh-aTErPa4_F6VcSfExnoE6Izr8Bkb4RYdS9_qPqDV-r4n8xoUKH6r2w5JsgUZ_h11-asrNFqwyMX8Mpe2NdqYYcevYg7U47Rh0Io7S6h8w42Xvrdm2KO54dEXvwiVovCctwvv0pw2ZZHHXWMn-JrHcOEwZa_2gnu5qkeoDyGSfE30XBV9yON-4rNIUhpix6Bn-jhjZbadwYofxk8fditydUBR6qgJ2cbQS8Bp6m00]--></g></svg>
