<?xml version="1.0" encoding="UTF-8"?>
<!DOCTYPE svg
PUBLIC "-//W3C//DTD SVG 1.1//EN"
       "http://www.w3.org/Graphics/SVG/1.1/DTD/svg11.dtd">
<svg viewBox="114 25 1627 849" width="1513px" height="824px" xmlns="http://www.w3.org/2000/svg" version="1.1">
   <line x1="1463" y1="703" x2="1453" y2="703" style="stroke:#b0b;stroke-width:1;"/>
   <line x1="869" y1="783" x2="859" y2="783" style="stroke:#b0b;stroke-width:1;"/>
   <line x1="1453" y1="703" x2="869" y2="783" style="stroke:#b0b;stroke-width:1;"/>
   <line x1="1455.5" y1="703" x2="1459.0355339059" y2="706.53553390593" style="stroke:#b0b;stroke-width:2;"/>
   <line x1="1455.5" y1="703" x2="1459.0355339059" y2="699.46446609407" style="stroke:#b0b;stroke-width:2;"/>
   <line x1="864" y1="783" x2="867.53553390593" y2="786.53553390593" style="stroke:#b0b;stroke-width:2;"/>
   <line x1="864" y1="783" x2="867.53553390593" y2="779.46446609407" style="stroke:#b0b;stroke-width:2;"/>
   <line x1="1380" y1="495" x2="1370" y2="495" style="stroke:#bbb;stroke-width:1;"/>
   <line x1="842" y1="176" x2="832" y2="176" style="stroke:#bbb;stroke-width:1;"/>
   <line x1="1370" y1="495" x2="842" y2="176" style="stroke:#bbb;stroke-width:1;"/>
   <line x1="1372.5" y1="495" x2="1376.0355339059" y2="498.53553390593" style="stroke:#bbb;stroke-width:2;"/>
   <line x1="1372.5" y1="495" x2="1376.0355339059" y2="491.46446609407" style="stroke:#bbb;stroke-width:2;"/>
   <line x1="837" y1="176" x2="840.53553390593" y2="179.53553390593" style="stroke:#bbb;stroke-width:2;"/>
   <line x1="837" y1="176" x2="840.53553390593" y2="172.46446609407" style="stroke:#bbb;stroke-width:2;"/>
   <line x1="1375" y1="242" x2="1365" y2="242" style="stroke:#cb0;stroke-width:1;"/>
   <line x1="1264" y1="687" x2="1254" y2="687" style="stroke:#cb0;stroke-width:1;"/>
   <line x1="1365" y1="242" x2="1264" y2="687" style="stroke:#cb0;stroke-width:1;"/>
   <line x1="1367.5" y1="242" x2="1371.0355339059" y2="245.53553390593" style="stroke:#cb0;stroke-width:2;"/>
   <line x1="1367.5" y1="242" x2="1371.0355339059" y2="238.46446609407" style="stroke:#cb0;stroke-width:2;"/>
   <line x1="1259" y1="687" x2="1262.5355339059" y2="690.53553390593" style="stroke:#cb0;stroke-width:2;"/>
   <line x1="1259" y1="687" x2="1262.5355339059" y2="683.46446609407" style="stroke:#cb0;stroke-width:2;"/>
   <line x1="942" y1="621" x2="932" y2="621" style="stroke:#0b0;stroke-width:1;"/>
   <line x1="848" y1="73" x2="838" y2="73" style="stroke:#0b0;stroke-width:1;"/>
   <line x1="932" y1="621" x2="848" y2="73" style="stroke:#0b0;stroke-width:1;"/>
   <line x1="934.5" y1="621" x2="938.03553390593" y2="624.53553390593" style="stroke:#0b0;stroke-width:2;"/>
   <line x1="934.5" y1="621" x2="938.03553390593" y2="617.46446609407" style="stroke:#0b0;stroke-width:2;"/>
   <line x1="843" y1="73" x2="846.53553390593" y2="76.535533905933" style="stroke:#0b0;stroke-width:2;"/>
   <line x1="843" y1="73" x2="846.53553390593" y2="69.464466094067" style="stroke:#0b0;stroke-width:2;"/>
   <line x1="588" y1="336" x2="598" y2="336" style="stroke:#b0b;stroke-width:1;"/>
   <line x1="690" y1="565" x2="700" y2="565" style="stroke:#b0b;stroke-width:1;"/>
   <line x1="598" y1="336" x2="690" y2="565" style="stroke:#b0b;stroke-width:1;"/>
   <line x1="595.5" y1="336" x2="591.96446609407" y2="339.53553390593" style="stroke:#b0b;stroke-width:2;"/>
   <line x1="595.5" y1="336" x2="591.96446609407" y2="332.46446609407" style="stroke:#b0b;stroke-width:2;"/>
   <line x1="695" y1="565" x2="691.46446609407" y2="568.53553390593" style="stroke:#b0b;stroke-width:2;"/>
   <line x1="695" y1="565" x2="691.46446609407" y2="561.46446609407" style="stroke:#b0b;stroke-width:2;"/>
   <line x1="588" y1="316" x2="598" y2="316" style="stroke:#bbb;stroke-width:1;"/>
   <line x1="933" y1="191" x2="943" y2="191" style="stroke:#bbb;stroke-width:1;"/>
   <line x1="598" y1="316" x2="933" y2="191" style="stroke:#bbb;stroke-width:1;"/>
   <line x1="595.5" y1="316" x2="591.96446609407" y2="319.53553390593" style="stroke:#bbb;stroke-width:2;"/>
   <line x1="595.5" y1="316" x2="591.96446609407" y2="312.46446609407" style="stroke:#bbb;stroke-width:2;"/>
   <line x1="938" y1="191" x2="934.46446609407" y2="194.53553390593" style="stroke:#bbb;stroke-width:2;"/>
   <line x1="938" y1="191" x2="934.46446609407" y2="187.46446609407" style="stroke:#bbb;stroke-width:2;"/>
   <line x1="700" y1="605" x2="690" y2="605" style="stroke:#bbb;stroke-width:1;"/>
   <line x1="691" y1="684" x2="701" y2="684" style="stroke:#bbb;stroke-width:1;"/>
   <line x1="690" y1="605" x2="691" y2="684" style="stroke:#bbb;stroke-width:1;"/>
   <line x1="692.5" y1="605" x2="696.03553390593" y2="608.53553390593" style="stroke:#bbb;stroke-width:2;"/>
   <line x1="692.5" y1="605" x2="696.03553390593" y2="601.46446609407" style="stroke:#bbb;stroke-width:2;"/>
   <line x1="696" y1="684" x2="692.46446609407" y2="687.53553390593" style="stroke:#bbb;stroke-width:2;"/>
   <line x1="696" y1="684" x2="692.46446609407" y2="680.46446609407" style="stroke:#bbb;stroke-width:2;"/>
   <line x1="539" y1="227" x2="549" y2="227" style="stroke:#333;stroke-width:1;"/>
   <line x1="933" y1="191" x2="943" y2="191" style="stroke:#333;stroke-width:1;"/>
   <line x1="549" y1="227" x2="933" y2="191" style="stroke:#333;stroke-width:1;"/>
   <line x1="546.5" y1="227" x2="542.96446609407" y2="230.53553390593" style="stroke:#333;stroke-width:2;"/>
   <line x1="546.5" y1="227" x2="542.96446609407" y2="223.46446609407" style="stroke:#333;stroke-width:2;"/>
   <line x1="938" y1="191" x2="934.46446609407" y2="194.53553390593" style="stroke:#333;stroke-width:2;"/>
   <line x1="938" y1="191" x2="934.46446609407" y2="187.46446609407" style="stroke:#333;stroke-width:2;"/>
   <line x1="539" y1="207" x2="549" y2="207" style="stroke:#0b0;stroke-width:1;"/>
   <line x1="1174" y1="219" x2="1184" y2="219" style="stroke:#0b0;stroke-width:1;"/>
   <line x1="549" y1="207" x2="1174" y2="219" style="stroke:#0b0;stroke-width:1;"/>
   <line x1="546.5" y1="207" x2="542.96446609407" y2="210.53553390593" style="stroke:#0b0;stroke-width:2;"/>
   <line x1="546.5" y1="207" x2="542.96446609407" y2="203.46446609407" style="stroke:#0b0;stroke-width:2;"/>
   <line x1="1179" y1="219" x2="1175.4644660941" y2="222.53553390593" style="stroke:#0b0;stroke-width:2;"/>
   <line x1="1179" y1="219" x2="1175.4644660941" y2="215.46446609407" style="stroke:#0b0;stroke-width:2;"/>
   <line x1="943" y1="112" x2="933" y2="112" style="stroke:#bbb;stroke-width:1;"/>
   <line x1="832" y1="565" x2="822" y2="565" style="stroke:#bbb;stroke-width:1;"/>
   <line x1="933" y1="112" x2="832" y2="565" style="stroke:#bbb;stroke-width:1;"/>
   <line x1="935.5" y1="112" x2="939.03553390593" y2="115.53553390593" style="stroke:#bbb;stroke-width:2;"/>
   <line x1="935.5" y1="112" x2="939.03553390593" y2="108.46446609407" style="stroke:#bbb;stroke-width:2;"/>
   <line x1="827" y1="565" x2="830.53553390593" y2="568.53553390593" style="stroke:#bbb;stroke-width:2;"/>
   <line x1="827" y1="565" x2="830.53553390593" y2="561.46446609407" style="stroke:#bbb;stroke-width:2;"/>
   <line x1="1146" y1="92" x2="1156" y2="92" style="stroke:#b0b;stroke-width:1;"/>
   <line x1="1174" y1="219" x2="1184" y2="219" style="stroke:#b0b;stroke-width:1;"/>
   <line x1="1156" y1="92" x2="1174" y2="219" style="stroke:#b0b;stroke-width:1;"/>
   <line x1="1153.5" y1="92" x2="1149.9644660941" y2="95.535533905933" style="stroke:#b0b;stroke-width:2;"/>
   <line x1="1153.5" y1="92" x2="1149.9644660941" y2="88.464466094067" style="stroke:#b0b;stroke-width:2;"/>
   <line x1="1179" y1="219" x2="1175.4644660941" y2="222.53553390593" style="stroke:#b0b;stroke-width:2;"/>
   <line x1="1179" y1="219" x2="1175.4644660941" y2="215.46446609407" style="stroke:#b0b;stroke-width:2;"/>
   <line x1="942" y1="401" x2="932" y2="401" style="stroke:#333;stroke-width:1;"/>
   <line x1="863" y1="684" x2="853" y2="684" style="stroke:#333;stroke-width:1;"/>
   <line x1="932" y1="401" x2="863" y2="684" style="stroke:#333;stroke-width:1;"/>
   <line x1="934.5" y1="401" x2="938.03553390593" y2="404.53553390593" style="stroke:#333;stroke-width:2;"/>
   <line x1="934.5" y1="401" x2="938.03553390593" y2="397.46446609407" style="stroke:#333;stroke-width:2;"/>
   <line x1="858" y1="684" x2="861.53553390593" y2="687.53553390593" style="stroke:#333;stroke-width:2;"/>
   <line x1="858" y1="684" x2="861.53553390593" y2="680.46446609407" style="stroke:#333;stroke-width:2;"/>
   <line x1="1074" y1="421" x2="1084" y2="421" style="stroke:#cb0;stroke-width:1;"/>
   <line x1="1174" y1="219" x2="1184" y2="219" style="stroke:#cb0;stroke-width:1;"/>
   <line x1="1084" y1="421" x2="1174" y2="219" style="stroke:#cb0;stroke-width:1;"/>
   <line x1="1081.5" y1="421" x2="1077.9644660941" y2="424.53553390593" style="stroke:#cb0;stroke-width:2;"/>
   <line x1="1081.5" y1="421" x2="1077.9644660941" y2="417.46446609407" style="stroke:#cb0;stroke-width:2;"/>
   <line x1="1179" y1="219" x2="1175.4644660941" y2="222.53553390593" style="stroke:#cb0;stroke-width:2;"/>
   <line x1="1179" y1="219" x2="1175.4644660941" y2="215.46446609407" style="stroke:#cb0;stroke-width:2;"/>
   <rect width="156" height="20" x="182" y="366" style="fill:#007;stroke:black;"/>
   <text width="156" height="20" x="187" y="380" style="fill:#fff;" font-family="Arial" font-size="16px"> academy_blooddonor</text>
   <rect width="156" height="20" x="182" y="386" style="fill:#aea;stroke:black;"/>
   <text width="156" height="20" x="187" y="400" style="fill:black;" font-family="Arial" font-size="16px">id</text>
   <rect width="156" height="20" x="182" y="406" style="fill:none;stroke:black;"/>
   <text width="156" height="20" x="187" y="420" style="fill:black;" font-family="Arial" font-size="16px">name</text>
   <rect width="156" height="20" x="182" y="426" style="fill:none;stroke:black;"/>
   <text width="156" height="20" x="187" y="440" style="fill:black;" font-family="Arial" font-size="16px">st_id</text>
   <rect width="156" height="20" x="182" y="446" style="fill:none;stroke:black;"/>
   <text width="156" height="20" x="187" y="460" style="fill:black;" font-family="Arial" font-size="16px">st_reg</text>
   <rect width="156" height="20" x="182" y="466" style="fill:none;stroke:black;"/>
   <text width="156" height="20" x="187" y="480" style="fill:black;" font-family="Arial" font-size="16px">blood_group</text>
   <rect width="156" height="20" x="182" y="486" style="fill:none;stroke:black;"/>
   <text width="156" height="20" x="187" y="500" style="fill:black;" font-family="Arial" font-size="16px">phone_number</text>
   <rect width="156" height="20" x="182" y="506" style="fill:none;stroke:black;"/>
   <text width="156" height="20" x="187" y="520" style="fill:black;" font-family="Arial" font-size="16px">email</text>
   <rect width="156" height="20" x="182" y="526" style="fill:none;stroke:black;"/>
   <text width="156" height="20" x="187" y="540" style="fill:black;" font-family="Arial" font-size="16px">faculty</text>
   <rect width="156" height="20" x="182" y="546" style="fill:none;stroke:black;"/>
   <text width="156" height="20" x="187" y="560" style="fill:black;" font-family="Arial" font-size="16px">session</text>
   <rect width="140" height="20" x="156" y="170" style="fill:#007;stroke:black;"/>
   <text width="140" height="20" x="161" y="184" style="fill:#fff;" font-family="Arial" font-size="16px"> academy_calender</text>
   <rect width="140" height="20" x="156" y="190" style="fill:#aea;stroke:black;"/>
   <text width="140" height="20" x="161" y="204" style="fill:black;" font-family="Arial" font-size="16px">id</text>
   <rect width="140" height="20" x="156" y="210" style="fill:none;stroke:black;"/>
   <text width="140" height="20" x="161" y="224" style="fill:black;" font-family="Arial" font-size="16px">month</text>
   <rect width="140" height="20" x="156" y="230" style="fill:none;stroke:black;"/>
   <text width="140" height="20" x="161" y="244" style="fill:black;" font-family="Arial" font-size="16px">event_name</text>
   <rect width="140" height="20" x="156" y="250" style="fill:none;stroke:black;"/>
   <text width="140" height="20" x="161" y="264" style="fill:black;" font-family="Arial" font-size="16px">event_date</text>
   <rect width="140" height="20" x="156" y="270" style="fill:none;stroke:black;"/>
   <text width="140" height="20" x="161" y="284" style="fill:black;" font-family="Arial" font-size="16px">event_range</text>
   <rect width="140" height="20" x="156" y="290" style="fill:none;stroke:black;"/>
   <text width="140" height="20" x="161" y="304" style="fill:black;" font-family="Arial" font-size="16px">event_length</text>
   <rect width="183" height="20" x="971" y="754" style="fill:#007;stroke:black;"/>
   <text width="183" height="20" x="976" y="768" style="fill:#fff;" font-family="Arial" font-size="16px"> academy_calenderimage</text>
   <rect width="183" height="20" x="971" y="774" style="fill:#aea;stroke:black;"/>
   <text width="183" height="20" x="976" y="788" style="fill:black;" font-family="Arial" font-size="16px">id</text>
   <rect width="183" height="20" x="971" y="794" style="fill:none;stroke:black;"/>
   <text width="183" height="20" x="976" y="808" style="fill:black;" font-family="Arial" font-size="16px">name</text>
   <rect width="183" height="20" x="971" y="814" style="fill:none;stroke:black;"/>
   <text width="183" height="20" x="976" y="828" style="fill:black;" font-family="Arial" font-size="16px">img</text>
   <rect width="161" height="20" x="698" y="753" style="fill:#007;stroke:black;"/>
   <text width="161" height="20" x="703" y="767" style="fill:#fff;" font-family="Arial" font-size="16px"> academy_deanfaculty</text>
   <rect width="161" height="20" x="698" y="773" style="fill:#aea;stroke:black;"/>
   <text width="161" height="20" x="703" y="787" style="fill:black;" font-family="Arial" font-size="16px">id</text>
   <rect width="161" height="20" x="698" y="793" style="fill:none;stroke:black;"/>
   <text width="161" height="20" x="703" y="807" style="fill:black;" font-family="Arial" font-size="16px">faculty</text>
   <rect width="161" height="20" x="698" y="813" style="fill:none;stroke:black;"/>
   <text width="161" height="20" x="703" y="827" style="fill:black;" font-family="Arial" font-size="16px">department</text>
   <rect width="149" height="20" x="1463" y="533" style="fill:#007;stroke:black;"/>
   <text width="149" height="20" x="1468" y="547" style="fill:#fff;" font-family="Arial" font-size="16px"> academy_deanoffice</text>
   <rect width="149" height="20" x="1463" y="553" style="fill:#aea;stroke:black;"/>
   <text width="149" height="20" x="1468" y="567" style="fill:black;" font-family="Arial" font-size="16px">id</text>
   <rect width="149" height="20" x="1463" y="573" style="fill:none;stroke:black;"/>
   <text width="149" height="20" x="1468" y="587" style="fill:black;" font-family="Arial" font-size="16px">name</text>
   <rect width="149" height="20" x="1463" y="593" style="fill:none;stroke:black;"/>
   <text width="149" height="20" x="1468" y="607" style="fill:black;" font-family="Arial" font-size="16px">phone_number</text>
   <rect width="149" height="20" x="1463" y="613" style="fill:none;stroke:black;"/>
   <text width="149" height="20" x="1468" y="627" style="fill:black;" font-family="Arial" font-size="16px">email</text>
   <rect width="149" height="20" x="1463" y="633" style="fill:none;stroke:black;"/>
   <text width="149" height="20" x="1468" y="647" style="fill:black;" font-family="Arial" font-size="16px">designation</text>
   <rect width="149" height="20" x="1463" y="653" style="fill:none;stroke:black;"/>
   <text width="149" height="20" x="1468" y="667" style="fill:black;" font-family="Arial" font-size="16px">faculty</text>
   <rect width="149" height="20" x="1463" y="673" style="fill:none;stroke:black;"/>
   <text width="149" height="20" x="1468" y="687" style="fill:black;" font-family="Arial" font-size="16px">priority</text>
   <rect width="149" height="20" x="1463" y="693" style="fill:none;stroke:black;"/>
   <text width="149" height="20" x="1468" y="707" style="fill:black;" font-family="Arial" font-size="16px">department_id</text>
   <rect width="161" height="20" x="322" y="40" style="fill:#007;stroke:black;"/>
   <text width="161" height="20" x="327" y="54" style="fill:#fff;" font-family="Arial" font-size="16px"> academy_department</text>
   <rect width="161" height="20" x="322" y="60" style="fill:#aea;stroke:black;"/>
   <text width="161" height="20" x="327" y="74" style="fill:black;" font-family="Arial" font-size="16px">id</text>
   <rect width="161" height="20" x="322" y="80" style="fill:none;stroke:black;"/>
   <text width="161" height="20" x="327" y="94" style="fill:black;" font-family="Arial" font-size="16px">faculty</text>
   <rect width="161" height="20" x="322" y="100" style="fill:none;stroke:black;"/>
   <text width="161" height="20" x="327" y="114" style="fill:black;" font-family="Arial" font-size="16px">department</text>
   <rect width="114" height="20" x="1380" y="325" style="fill:#007;stroke:black;"/>
   <text width="114" height="20" x="1385" y="339" style="fill:#fff;" font-family="Arial" font-size="16px"> academy_staff</text>
   <rect width="114" height="20" x="1380" y="345" style="fill:#aea;stroke:black;"/>
   <text width="114" height="20" x="1385" y="359" style="fill:black;" font-family="Arial" font-size="16px">id</text>
   <rect width="114" height="20" x="1380" y="365" style="fill:none;stroke:black;"/>
   <text width="114" height="20" x="1385" y="379" style="fill:black;" font-family="Arial" font-size="16px">name</text>
   <rect width="114" height="20" x="1380" y="385" style="fill:none;stroke:black;"/>
   <text width="114" height="20" x="1385" y="399" style="fill:black;" font-family="Arial" font-size="16px">phone_number</text>
   <rect width="114" height="20" x="1380" y="405" style="fill:none;stroke:black;"/>
   <text width="114" height="20" x="1385" y="419" style="fill:black;" font-family="Arial" font-size="16px">email</text>
   <rect width="114" height="20" x="1380" y="425" style="fill:none;stroke:black;"/>
   <text width="114" height="20" x="1385" y="439" style="fill:black;" font-family="Arial" font-size="16px">designation</text>
   <rect width="114" height="20" x="1380" y="445" style="fill:none;stroke:black;"/>
   <text width="114" height="20" x="1385" y="459" style="fill:black;" font-family="Arial" font-size="16px">faculty</text>
   <rect width="114" height="20" x="1380" y="465" style="fill:none;stroke:black;"/>
   <text width="114" height="20" x="1385" y="479" style="fill:black;" font-family="Arial" font-size="16px">priority</text>
   <rect width="114" height="20" x="1380" y="485" style="fill:none;stroke:black;"/>
   <text width="114" height="20" x="1385" y="499" style="fill:black;" font-family="Arial" font-size="16px">department_id</text>
   <rect width="189" height="20" x="643" y="146" style="fill:#007;stroke:black;"/>
   <text width="189" height="20" x="648" y="160" style="fill:#fff;" font-family="Arial" font-size="16px"> academy_staffdepartment</text>
   <rect width="189" height="20" x="643" y="166" style="fill:#aea;stroke:black;"/>
   <text width="189" height="20" x="648" y="180" style="fill:black;" font-family="Arial" font-size="16px">id</text>
   <rect width="189" height="20" x="643" y="186" style="fill:none;stroke:black;"/>
   <text width="189" height="20" x="648" y="200" style="fill:black;" font-family="Arial" font-size="16px">faculty</text>
   <rect width="189" height="20" x="643" y="206" style="fill:none;stroke:black;"/>
   <text width="189" height="20" x="648" y="220" style="fill:black;" font-family="Arial" font-size="16px">department</text>
   <rect width="142" height="20" x="687" y="247" style="fill:#007;stroke:black;"/>
   <text width="142" height="20" x="692" y="261" style="fill:#fff;" font-family="Arial" font-size="16px"> academy_studentcr</text>
   <rect width="142" height="20" x="687" y="267" style="fill:#aea;stroke:black;"/>
   <text width="142" height="20" x="692" y="281" style="fill:black;" font-family="Arial" font-size="16px">id</text>
   <rect width="142" height="20" x="687" y="287" style="fill:none;stroke:black;"/>
   <text width="142" height="20" x="692" y="301" style="fill:black;" font-family="Arial" font-size="16px">name</text>
   <rect width="142" height="20" x="687" y="307" style="fill:none;stroke:black;"/>
   <text width="142" height="20" x="692" y="321" style="fill:black;" font-family="Arial" font-size="16px">phone_number</text>
   <rect width="142" height="20" x="687" y="327" style="fill:none;stroke:black;"/>
   <text width="142" height="20" x="692" y="341" style="fill:black;" font-family="Arial" font-size="16px">email</text>
   <rect width="142" height="20" x="687" y="347" style="fill:none;stroke:black;"/>
   <text width="142" height="20" x="692" y="361" style="fill:black;" font-family="Arial" font-size="16px">faculty</text>
   <rect width="142" height="20" x="687" y="367" style="fill:none;stroke:black;"/>
   <text width="142" height="20" x="692" y="381" style="fill:black;" font-family="Arial" font-size="16px">semester</text>
   <rect width="142" height="20" x="687" y="387" style="fill:none;stroke:black;"/>
   <text width="142" height="20" x="692" y="401" style="fill:black;" font-family="Arial" font-size="16px">priority</text>
   <rect width="135" height="20" x="451" y="365" style="fill:#007;stroke:black;"/>
   <text width="135" height="20" x="456" y="379" style="fill:#fff;" font-family="Arial" font-size="16px"> academy_teacher</text>
   <rect width="135" height="20" x="451" y="385" style="fill:#aea;stroke:black;"/>
   <text width="135" height="20" x="456" y="399" style="fill:black;" font-family="Arial" font-size="16px">id</text>
   <rect width="135" height="20" x="451" y="405" style="fill:none;stroke:black;"/>
   <text width="135" height="20" x="456" y="419" style="fill:black;" font-family="Arial" font-size="16px">name</text>
   <rect width="135" height="20" x="451" y="425" style="fill:none;stroke:black;"/>
   <text width="135" height="20" x="456" y="439" style="fill:black;" font-family="Arial" font-size="16px">phone_number</text>
   <rect width="135" height="20" x="451" y="445" style="fill:none;stroke:black;"/>
   <text width="135" height="20" x="456" y="459" style="fill:black;" font-family="Arial" font-size="16px">profile_pic</text>
   <rect width="135" height="20" x="451" y="465" style="fill:none;stroke:black;"/>
   <text width="135" height="20" x="456" y="479" style="fill:black;" font-family="Arial" font-size="16px">email</text>
   <rect width="135" height="20" x="451" y="485" style="fill:none;stroke:black;"/>
   <text width="135" height="20" x="456" y="499" style="fill:black;" font-family="Arial" font-size="16px">designation</text>
   <rect width="135" height="20" x="451" y="505" style="fill:none;stroke:black;"/>
   <text width="135" height="20" x="456" y="519" style="fill:black;" font-family="Arial" font-size="16px">faculty_name</text>
   <rect width="135" height="20" x="451" y="525" style="fill:none;stroke:black;"/>
   <text width="135" height="20" x="456" y="539" style="fill:black;" font-family="Arial" font-size="16px">priority</text>
   <rect width="135" height="20" x="451" y="545" style="fill:none;stroke:black;"/>
   <text width="135" height="20" x="456" y="559" style="fill:black;" font-family="Arial" font-size="16px">department_id</text>
   <rect width="212" height="20" x="1375" y="72" style="fill:#007;stroke:black;"/>
   <text width="212" height="20" x="1380" y="86" style="fill:#fff;" font-family="Arial" font-size="16px"> administration_administration</text>
   <rect width="212" height="20" x="1375" y="92" style="fill:#aea;stroke:black;"/>
   <text width="212" height="20" x="1380" y="106" style="fill:black;" font-family="Arial" font-size="16px">id</text>
   <rect width="212" height="20" x="1375" y="112" style="fill:none;stroke:black;"/>
   <text width="212" height="20" x="1380" y="126" style="fill:black;" font-family="Arial" font-size="16px">name</text>
   <rect width="212" height="20" x="1375" y="132" style="fill:none;stroke:black;"/>
   <text width="212" height="20" x="1380" y="146" style="fill:black;" font-family="Arial" font-size="16px">phone_number</text>
   <rect width="212" height="20" x="1375" y="152" style="fill:none;stroke:black;"/>
   <text width="212" height="20" x="1380" y="166" style="fill:black;" font-family="Arial" font-size="16px">email</text>
   <rect width="212" height="20" x="1375" y="172" style="fill:none;stroke:black;"/>
   <text width="212" height="20" x="1380" y="186" style="fill:black;" font-family="Arial" font-size="16px">designation</text>
   <rect width="212" height="20" x="1375" y="192" style="fill:none;stroke:black;"/>
   <text width="212" height="20" x="1380" y="206" style="fill:black;" font-family="Arial" font-size="16px">faculty_name</text>
   <rect width="212" height="20" x="1375" y="212" style="fill:none;stroke:black;"/>
   <text width="212" height="20" x="1380" y="226" style="fill:black;" font-family="Arial" font-size="16px">priority</text>
   <rect width="212" height="20" x="1375" y="232" style="fill:none;stroke:black;"/>
   <text width="212" height="20" x="1380" y="246" style="fill:black;" font-family="Arial" font-size="16px">department_id</text>
   <rect width="212" height="20" x="1375" y="252" style="fill:none;stroke:black;"/>
   <text width="212" height="20" x="1380" y="266" style="fill:black;" font-family="Arial" font-size="16px">profile_pic</text>
   <rect width="294" height="20" x="960" y="657" style="fill:#007;stroke:black;"/>
   <text width="294" height="20" x="965" y="671" style="fill:#fff;" font-family="Arial" font-size="16px"> administration_administrationdepartment</text>
   <rect width="294" height="20" x="960" y="677" style="fill:#aea;stroke:black;"/>
   <text width="294" height="20" x="965" y="691" style="fill:black;" font-family="Arial" font-size="16px">id</text>
   <rect width="294" height="20" x="960" y="697" style="fill:none;stroke:black;"/>
   <text width="294" height="20" x="965" y="711" style="fill:black;" font-family="Arial" font-size="16px">faculty</text>
   <rect width="294" height="20" x="960" y="717" style="fill:none;stroke:black;"/>
   <text width="294" height="20" x="965" y="731" style="fill:black;" font-family="Arial" font-size="16px">department</text>
   <rect width="248" height="20" x="590" y="43" style="fill:#007;stroke:black;"/>
   <text width="248" height="20" x="595" y="57" style="fill:#fff;" font-family="Arial" font-size="16px"> administration_servicedepartment</text>
   <rect width="248" height="20" x="590" y="63" style="fill:#aea;stroke:black;"/>
   <text width="248" height="20" x="595" y="77" style="fill:black;" font-family="Arial" font-size="16px">id</text>
   <rect width="248" height="20" x="590" y="83" style="fill:none;stroke:black;"/>
   <text width="248" height="20" x="595" y="97" style="fill:black;" font-family="Arial" font-size="16px">faculty_name</text>
   <rect width="248" height="20" x="590" y="103" style="fill:none;stroke:black;"/>
   <text width="248" height="20" x="595" y="117" style="fill:black;" font-family="Arial" font-size="16px">department</text>
   <rect width="172" height="20" x="942" y="471" style="fill:#007;stroke:black;"/>
   <text width="172" height="20" x="947" y="485" style="fill:#fff;" font-family="Arial" font-size="16px"> administration_services</text>
   <rect width="172" height="20" x="942" y="491" style="fill:#aea;stroke:black;"/>
   <text width="172" height="20" x="947" y="505" style="fill:black;" font-family="Arial" font-size="16px">id</text>
   <rect width="172" height="20" x="942" y="511" style="fill:none;stroke:black;"/>
   <text width="172" height="20" x="947" y="525" style="fill:black;" font-family="Arial" font-size="16px">name</text>
   <rect width="172" height="20" x="942" y="531" style="fill:none;stroke:black;"/>
   <text width="172" height="20" x="947" y="545" style="fill:black;" font-family="Arial" font-size="16px">phone</text>
   <rect width="172" height="20" x="942" y="551" style="fill:none;stroke:black;"/>
   <text width="172" height="20" x="947" y="565" style="fill:black;" font-family="Arial" font-size="16px">designation</text>
   <rect width="172" height="20" x="942" y="571" style="fill:none;stroke:black;"/>
   <text width="172" height="20" x="947" y="585" style="fill:black;" font-family="Arial" font-size="16px">email</text>
   <rect width="172" height="20" x="942" y="591" style="fill:none;stroke:black;"/>
   <text width="172" height="20" x="947" y="605" style="fill:black;" font-family="Arial" font-size="16px">priority</text>
   <rect width="172" height="20" x="942" y="611" style="fill:none;stroke:black;"/>
   <text width="172" height="20" x="947" y="625" style="fill:black;" font-family="Arial" font-size="16px">department_id</text>
   <rect width="85" height="20" x="943" y="161" style="fill:#007;stroke:black;"/>
   <text width="85" height="20" x="948" y="175" style="fill:#fff;" font-family="Arial" font-size="16px"> auth_group</text>
   <rect width="85" height="20" x="943" y="181" style="fill:#aea;stroke:black;"/>
   <text width="85" height="20" x="948" y="195" style="fill:black;" font-family="Arial" font-size="16px">id</text>
   <rect width="85" height="20" x="943" y="201" style="fill:none;stroke:black;"/>
   <text width="85" height="20" x="948" y="215" style="fill:black;" font-family="Arial" font-size="16px">name</text>
   <rect width="175" height="20" x="413" y="266" style="fill:#007;stroke:black;"/>
   <text width="175" height="20" x="418" y="280" style="fill:#fff;" font-family="Arial" font-size="16px"> auth_group_permissions</text>
   <rect width="175" height="20" x="413" y="286" style="fill:#aea;stroke:black;"/>
   <text width="175" height="20" x="418" y="300" style="fill:black;" font-family="Arial" font-size="16px">id</text>
   <rect width="175" height="20" x="413" y="306" style="fill:none;stroke:black;"/>
   <text width="175" height="20" x="418" y="320" style="fill:black;" font-family="Arial" font-size="16px">group_id</text>
   <rect width="175" height="20" x="413" y="326" style="fill:none;stroke:black;"/>
   <text width="175" height="20" x="418" y="340" style="fill:black;" font-family="Arial" font-size="16px">permission_id</text>
   <rect width="122" height="20" x="700" y="535" style="fill:#007;stroke:black;"/>
   <text width="122" height="20" x="705" y="549" style="fill:#fff;" font-family="Arial" font-size="16px"> auth_permission</text>
   <rect width="122" height="20" x="700" y="555" style="fill:#aea;stroke:black;"/>
   <text width="122" height="20" x="705" y="569" style="fill:black;" font-family="Arial" font-size="16px">id</text>
   <rect width="122" height="20" x="700" y="575" style="fill:none;stroke:black;"/>
   <text width="122" height="20" x="705" y="589" style="fill:black;" font-family="Arial" font-size="16px">name</text>
   <rect width="122" height="20" x="700" y="595" style="fill:none;stroke:black;"/>
   <text width="122" height="20" x="705" y="609" style="fill:black;" font-family="Arial" font-size="16px">content_type_id</text>
   <rect width="122" height="20" x="700" y="615" style="fill:none;stroke:black;"/>
   <text width="122" height="20" x="705" y="629" style="fill:black;" font-family="Arial" font-size="16px">codename</text>
   <rect width="98" height="20" x="1184" y="189" style="fill:#007;stroke:black;"/>
   <text width="98" height="20" x="1189" y="203" style="fill:#fff;" font-family="Arial" font-size="16px"> auth_user</text>
   <rect width="98" height="20" x="1184" y="209" style="fill:#aea;stroke:black;"/>
   <text width="98" height="20" x="1189" y="223" style="fill:black;" font-family="Arial" font-size="16px">id</text>
   <rect width="98" height="20" x="1184" y="229" style="fill:none;stroke:black;"/>
   <text width="98" height="20" x="1189" y="243" style="fill:black;" font-family="Arial" font-size="16px">password</text>
   <rect width="98" height="20" x="1184" y="249" style="fill:none;stroke:black;"/>
   <text width="98" height="20" x="1189" y="263" style="fill:black;" font-family="Arial" font-size="16px">last_login</text>
   <rect width="98" height="20" x="1184" y="269" style="fill:none;stroke:black;"/>
   <text width="98" height="20" x="1189" y="283" style="fill:black;" font-family="Arial" font-size="16px">is_superuser</text>
   <rect width="98" height="20" x="1184" y="289" style="fill:none;stroke:black;"/>
   <text width="98" height="20" x="1189" y="303" style="fill:black;" font-family="Arial" font-size="16px">username</text>
   <rect width="98" height="20" x="1184" y="309" style="fill:none;stroke:black;"/>
   <text width="98" height="20" x="1189" y="323" style="fill:black;" font-family="Arial" font-size="16px">first_name</text>
   <rect width="98" height="20" x="1184" y="329" style="fill:none;stroke:black;"/>
   <text width="98" height="20" x="1189" y="343" style="fill:black;" font-family="Arial" font-size="16px">last_name</text>
   <rect width="98" height="20" x="1184" y="349" style="fill:none;stroke:black;"/>
   <text width="98" height="20" x="1189" y="363" style="fill:black;" font-family="Arial" font-size="16px">email</text>
   <rect width="98" height="20" x="1184" y="369" style="fill:none;stroke:black;"/>
   <text width="98" height="20" x="1189" y="383" style="fill:black;" font-family="Arial" font-size="16px">is_staff</text>
   <rect width="98" height="20" x="1184" y="389" style="fill:none;stroke:black;"/>
   <text width="98" height="20" x="1189" y="403" style="fill:black;" font-family="Arial" font-size="16px">is_active</text>
   <rect width="98" height="20" x="1184" y="409" style="fill:none;stroke:black;"/>
   <text width="98" height="20" x="1189" y="423" style="fill:black;" font-family="Arial" font-size="16px">date_joined</text>
   <rect width="131" height="20" x="408" y="157" style="fill:#007;stroke:black;"/>
   <text width="131" height="20" x="413" y="171" style="fill:#fff;" font-family="Arial" font-size="16px"> auth_user_groups</text>
   <rect width="131" height="20" x="408" y="177" style="fill:#aea;stroke:black;"/>
   <text width="131" height="20" x="413" y="191" style="fill:black;" font-family="Arial" font-size="16px">id</text>
   <rect width="131" height="20" x="408" y="197" style="fill:none;stroke:black;"/>
   <text width="131" height="20" x="413" y="211" style="fill:black;" font-family="Arial" font-size="16px">user_id</text>
   <rect width="131" height="20" x="408" y="217" style="fill:none;stroke:black;"/>
   <text width="131" height="20" x="413" y="231" style="fill:black;" font-family="Arial" font-size="16px">group_id</text>
   <rect width="203" height="20" x="943" y="42" style="fill:#007;stroke:black;"/>
   <text width="203" height="20" x="948" y="56" style="fill:#fff;" font-family="Arial" font-size="16px"> auth_user_user_permissions</text>
   <rect width="203" height="20" x="943" y="62" style="fill:#aea;stroke:black;"/>
   <text width="203" height="20" x="948" y="76" style="fill:black;" font-family="Arial" font-size="16px">id</text>
   <rect width="203" height="20" x="943" y="82" style="fill:none;stroke:black;"/>
   <text width="203" height="20" x="948" y="96" style="fill:black;" font-family="Arial" font-size="16px">user_id</text>
   <rect width="203" height="20" x="943" y="102" style="fill:none;stroke:black;"/>
   <text width="203" height="20" x="948" y="116" style="fill:black;" font-family="Arial" font-size="16px">permission_id</text>
   <rect width="240" height="20" x="129" y="606" style="fill:#007;stroke:black;"/>
   <text width="240" height="20" x="134" y="620" style="fill:#fff;" font-family="Arial" font-size="16px"> bus_management_registereduser</text>
   <rect width="240" height="20" x="129" y="626" style="fill:#aea;stroke:black;"/>
   <text width="240" height="20" x="134" y="640" style="fill:black;" font-family="Arial" font-size="16px">id</text>
   <rect width="240" height="20" x="129" y="646" style="fill:none;stroke:black;"/>
   <text width="240" height="20" x="134" y="660" style="fill:black;" font-family="Arial" font-size="16px">name</text>
   <rect width="240" height="20" x="129" y="666" style="fill:none;stroke:black;"/>
   <text width="240" height="20" x="134" y="680" style="fill:black;" font-family="Arial" font-size="16px">email</text>
   <rect width="240" height="20" x="129" y="686" style="fill:none;stroke:black;"/>
   <text width="240" height="20" x="134" y="700" style="fill:black;" font-family="Arial" font-size="16px">phone_number</text>
   <rect width="240" height="20" x="129" y="706" style="fill:none;stroke:black;"/>
   <text width="240" height="20" x="134" y="720" style="fill:black;" font-family="Arial" font-size="16px">designation</text>
   <rect width="240" height="20" x="129" y="726" style="fill:none;stroke:black;"/>
   <text width="240" height="20" x="134" y="740" style="fill:black;" font-family="Arial" font-size="16px">password</text>
   <rect width="240" height="20" x="129" y="746" style="fill:none;stroke:black;"/>
   <text width="240" height="20" x="134" y="760" style="fill:black;" font-family="Arial" font-size="16px">user_role</text>
   <rect width="111" height="20" x="472" y="641" style="fill:#007;stroke:black;"/>
   <text width="111" height="20" x="477" y="655" style="fill:#fff;" font-family="Arial" font-size="16px"> course_course</text>
   <rect width="111" height="20" x="472" y="661" style="fill:#aea;stroke:black;"/>
   <text width="111" height="20" x="477" y="675" style="fill:black;" font-family="Arial" font-size="16px">id</text>
   <rect width="111" height="20" x="472" y="681" style="fill:none;stroke:black;"/>
   <text width="111" height="20" x="477" y="695" style="fill:black;" font-family="Arial" font-size="16px">course_title</text>
   <rect width="111" height="20" x="472" y="701" style="fill:none;stroke:black;"/>
   <text width="111" height="20" x="477" y="715" style="fill:black;" font-family="Arial" font-size="16px">course_code</text>
   <rect width="111" height="20" x="472" y="721" style="fill:none;stroke:black;"/>
   <text width="111" height="20" x="477" y="735" style="fill:black;" font-family="Arial" font-size="16px">credit_hour</text>
   <rect width="111" height="20" x="472" y="741" style="fill:none;stroke:black;"/>
   <text width="111" height="20" x="477" y="755" style="fill:black;" font-family="Arial" font-size="16px">faculty</text>
   <rect width="111" height="20" x="472" y="761" style="fill:none;stroke:black;"/>
   <text width="111" height="20" x="477" y="775" style="fill:black;" font-family="Arial" font-size="16px">semester</text>
   <rect width="132" height="20" x="942" y="251" style="fill:#007;stroke:black;"/>
   <text width="132" height="20" x="947" y="265" style="fill:#fff;" font-family="Arial" font-size="16px"> django_admin_log</text>
   <rect width="132" height="20" x="942" y="271" style="fill:#aea;stroke:black;"/>
   <text width="132" height="20" x="947" y="285" style="fill:black;" font-family="Arial" font-size="16px">id</text>
   <rect width="132" height="20" x="942" y="291" style="fill:none;stroke:black;"/>
   <text width="132" height="20" x="947" y="305" style="fill:black;" font-family="Arial" font-size="16px">action_time</text>
   <rect width="132" height="20" x="942" y="311" style="fill:none;stroke:black;"/>
   <text width="132" height="20" x="947" y="325" style="fill:black;" font-family="Arial" font-size="16px">object_id</text>
   <rect width="132" height="20" x="942" y="331" style="fill:none;stroke:black;"/>
   <text width="132" height="20" x="947" y="345" style="fill:black;" font-family="Arial" font-size="16px">object_repr</text>
   <rect width="132" height="20" x="942" y="351" style="fill:none;stroke:black;"/>
   <text width="132" height="20" x="947" y="365" style="fill:black;" font-family="Arial" font-size="16px">action_flag</text>
   <rect width="132" height="20" x="942" y="371" style="fill:none;stroke:black;"/>
   <text width="132" height="20" x="947" y="385" style="fill:black;" font-family="Arial" font-size="16px">change_message</text>
   <rect width="132" height="20" x="942" y="391" style="fill:none;stroke:black;"/>
   <text width="132" height="20" x="947" y="405" style="fill:black;" font-family="Arial" font-size="16px">content_type_id</text>
   <rect width="132" height="20" x="942" y="411" style="fill:none;stroke:black;"/>
   <text width="132" height="20" x="947" y="425" style="fill:black;" font-family="Arial" font-size="16px">user_id</text>
   <rect width="152" height="20" x="701" y="654" style="fill:#007;stroke:black;"/>
   <text width="152" height="20" x="706" y="668" style="fill:#fff;" font-family="Arial" font-size="16px"> django_content_type</text>
   <rect width="152" height="20" x="701" y="674" style="fill:#aea;stroke:black;"/>
   <text width="152" height="20" x="706" y="688" style="fill:black;" font-family="Arial" font-size="16px">id</text>
   <rect width="152" height="20" x="701" y="694" style="fill:none;stroke:black;"/>
   <text width="152" height="20" x="706" y="708" style="fill:black;" font-family="Arial" font-size="16px">app_label</text>
   <rect width="152" height="20" x="701" y="714" style="fill:none;stroke:black;"/>
   <text width="152" height="20" x="706" y="728" style="fill:black;" font-family="Arial" font-size="16px">model</text>
   <rect width="139" height="20" x="1221" y="531" style="fill:#007;stroke:black;"/>
   <text width="139" height="20" x="1226" y="545" style="fill:#fff;" font-family="Arial" font-size="16px"> django_migrations</text>
   <rect width="139" height="20" x="1221" y="551" style="fill:#aea;stroke:black;"/>
   <text width="139" height="20" x="1226" y="565" style="fill:black;" font-family="Arial" font-size="16px">id</text>
   <rect width="139" height="20" x="1221" y="571" style="fill:none;stroke:black;"/>
   <text width="139" height="20" x="1226" y="585" style="fill:black;" font-family="Arial" font-size="16px">app</text>
   <rect width="139" height="20" x="1221" y="591" style="fill:none;stroke:black;"/>
   <text width="139" height="20" x="1226" y="605" style="fill:black;" font-family="Arial" font-size="16px">name</text>
   <rect width="139" height="20" x="1221" y="611" style="fill:none;stroke:black;"/>
   <text width="139" height="20" x="1226" y="625" style="fill:black;" font-family="Arial" font-size="16px">applied</text>
   <rect width="114" height="20" x="715" y="432" style="fill:#007;stroke:black;"/>
   <text width="114" height="20" x="720" y="446" style="fill:#fff;" font-family="Arial" font-size="16px"> django_session</text>
   <rect width="114" height="20" x="715" y="452" style="fill:none;stroke:black;"/>
   <text width="114" height="20" x="720" y="466" style="fill:black;" font-family="Arial" font-size="16px">session_key</text>
   <rect width="114" height="20" x="715" y="472" style="fill:none;stroke:black;"/>
   <text width="114" height="20" x="720" y="486" style="fill:black;" font-family="Arial" font-size="16px">session_data</text>
   <rect width="114" height="20" x="715" y="492" style="fill:none;stroke:black;"/>
   <text width="114" height="20" x="720" y="506" style="fill:black;" font-family="Arial" font-size="16px">expire_date</text>
</svg>
